<svg width="47" height="47" viewBox="0 0 47 47" fill="none" xmlns="http://www.w3.org/2000/svg">
<path d="M45.1098 44.8682H2.20874" stroke="#0081FF" stroke-width="3" stroke-linecap="round"/>
<path d="M42.9647 44.8681V28.7802C42.9647 27.9269 42.6258 27.1085 42.0223 26.5051C41.4189 25.9016 40.6005 25.5626 39.7472 25.5626H33.312C32.4586 25.5626 31.6402 25.9016 31.0368 26.5051C30.4334 27.1085 30.0944 27.9269 30.0944 28.7802V44.8681V8.40221C30.0944 5.3691 30.0944 3.85254 29.1506 2.91087C28.2111 1.96704 26.6945 1.96704 23.6593 1.96704C20.624 1.96704 19.1096 1.96704 18.1679 2.91087C17.2241 3.8504 17.2241 5.36695 17.2241 8.40221V44.8681V18.055C17.2241 17.2016 16.8851 16.3832 16.2817 15.7798C15.6783 15.1764 14.8599 14.8374 14.0065 14.8374H7.57134C6.71799 14.8374 5.89958 15.1764 5.29617 15.7798C4.69275 16.3832 4.35376 17.2016 4.35376 18.055V44.8681" stroke="#0081FF" stroke-width="3"/>
</svg>
