<svg width="44" height="52" viewBox="0 0 44 52" fill="none" xmlns="http://www.w3.org/2000/svg">
<path d="M9.85594 7.45498C6.74561 9.21258 5.15827 11.4396 5.15827 13.6594C5.15827 15.8791 6.74561 18.1061 9.85594 19.8637C12.9534 21.6141 17.3508 22.7567 22.3187 22.7567C27.2867 22.7567 31.684 21.6141 34.7815 19.8637C37.8918 18.1061 39.4791 15.8791 39.4791 13.6594C39.4791 11.4396 37.8918 9.21258 34.7815 7.45498C31.684 5.70465 27.2867 4.56203 22.3187 4.56203C17.3508 4.56203 12.9534 5.70465 9.85594 7.45498ZM7.47922 4.42739C11.3704 2.22583 16.6214 0.923096 22.3187 0.923096C28.016 0.923096 33.2671 2.22583 37.1625 4.42739C41.0322 6.61803 43.7693 9.8494 43.7693 13.6594C43.7693 17.473 41.0365 20.7007 37.1625 22.8913C33.2628 25.0929 28.0117 26.3956 22.3187 26.3956C16.6257 26.3956 11.3704 25.0929 7.47493 22.8913C3.60525 20.7007 0.868164 17.4693 0.868164 13.6594C0.868164 9.84576 3.60525 6.61803 7.47922 4.42739ZM43.1343 23.288C42.0504 24.2365 40.8205 25.1014 39.4448 25.8825C39.4677 26.0524 39.4791 26.2234 39.4791 26.3956C39.4791 28.6154 37.8918 30.8424 34.7815 32.6C31.684 34.3503 27.2867 35.493 22.3187 35.493C17.3508 35.493 12.9534 34.3503 9.85594 32.6C6.74561 30.8424 5.15827 28.6154 5.15827 26.3956C5.15827 26.2258 5.16828 26.0548 5.1883 25.8825C3.85415 25.1303 2.61745 24.2607 1.49881 23.288C1.08513 24.2866 0.87195 25.3371 0.868164 26.3956C0.868164 30.2092 3.60096 33.437 7.47493 35.6276C11.3704 37.8291 16.6214 39.1319 22.3187 39.1319C28.016 39.1319 33.2671 37.8291 37.1625 35.6276C41.0322 33.437 43.7693 30.2056 43.7693 26.3956C43.7655 25.3371 43.548 24.2866 43.1343 23.288ZM43.1386 36.0242C42.0546 36.9728 40.8248 37.8376 39.4491 38.6188C39.4691 38.7886 39.4791 38.9596 39.4791 39.1319C39.4791 41.3516 37.8918 43.5787 34.7815 45.3363C31.684 47.0866 27.2867 48.2292 22.3187 48.2292C17.3508 48.2292 12.9534 47.0866 9.85594 45.3363C6.74561 43.5787 5.15827 41.3516 5.15827 39.1319C5.15827 38.9621 5.16828 38.791 5.1883 38.6188C3.85415 37.8666 2.61745 36.9969 1.49881 36.0242C1.08513 37.0229 0.87195 38.0734 0.868164 39.1319C0.868164 42.9455 3.60096 46.1732 7.47493 48.3639C11.3704 50.5654 16.6214 51.8681 22.3187 51.8681C28.016 51.8681 33.2671 50.5654 37.1625 48.3639C41.0365 46.1732 43.7693 42.9418 43.7693 39.1319C43.7655 38.0734 43.5523 37.0229 43.1386 36.0242Z" fill="#0081FF"/>
</svg>
