<svg width="25" height="47" viewBox="0 0 25 47" fill="none" xmlns="http://www.w3.org/2000/svg">
<mask id="path-1-inside-1_172_55" fill="white">
<path d="M24.7135 30.7658L24.7155 30.9406C24.7186 33.3607 23.7973 35.6936 22.1343 37.4767L22.1401 37.4692C20.4083 39.347 18.0653 40.5722 15.5145 40.9338L15.4547 40.9414V45.4243C15.4547 45.6323 15.3707 45.8319 15.2211 45.979C15.0716 46.1261 14.8688 46.2088 14.6573 46.2088H14.6245H11.138C10.9191 46.2063 10.7099 46.1196 10.5551 45.9674C10.4003 45.8151 10.3123 45.6092 10.3098 45.3939V40.9414C9.14633 40.7889 8.00319 40.5124 6.90041 40.1171L7.01431 40.1531C5.36668 39.6115 3.82089 38.8068 2.43892 37.7712L2.47753 37.7997C2.05644 37.4977 1.65116 37.175 1.26322 36.8328L1.27673 36.8442C1.0618 36.6416 0.911216 36.4896 0.824985 36.3883C0.685414 36.2518 0.60301 36.0687 0.594073 35.8752C0.585136 35.6818 0.650316 35.4921 0.776721 35.3436L0.774791 35.3455L3.43701 31.9112C3.50818 31.822 3.59785 31.7488 3.70005 31.6964C3.80224 31.644 3.91462 31.6136 4.02969 31.6073H4.03162C4.14611 31.5864 4.26423 31.5968 4.37314 31.6373C4.48206 31.6778 4.5776 31.7469 4.64939 31.8371L4.65133 31.839L4.70152 31.8884C6.44715 33.4608 8.58339 34.5524 10.8947 35.053L10.9835 35.0701C11.5588 35.1992 12.2191 35.2733 12.8967 35.2733L13.0164 35.2752C14.3504 35.2752 15.5859 34.8649 16.6033 34.1659L16.5821 34.1792C17.0948 33.8375 17.5102 33.3724 17.7886 32.8281C18.0671 32.2838 18.1994 31.6785 18.1729 31.0697V31.0773C18.1729 30.5778 18.0281 30.1124 17.779 29.7192L17.7848 29.7306C17.5504 29.3377 17.2598 28.9801 16.9219 28.6688L16.9199 28.6669C16.4711 28.2966 15.9777 27.9821 15.4508 27.7304L15.4083 27.7114C14.7185 27.3644 14.1522 27.0928 13.7094 26.8965C13.2667 26.7002 12.5775 26.4248 11.6418 26.0702C10.97 25.7992 10.4397 25.5871 10.0511 25.4339C9.66238 25.2807 9.13212 25.0559 8.46029 24.7596C7.78846 24.4633 7.24984 24.2005 6.84442 23.9713C6.43901 23.7421 5.95187 23.4413 5.383 23.069C4.88623 22.7509 4.42028 22.3885 3.99108 21.9863L3.99301 21.9882C3.60439 21.6026 3.23706 21.1968 2.8926 20.7725L2.8675 20.7421C2.50255 20.3056 2.19928 19.8226 1.96594 19.3061L1.95049 19.2662C1.72448 18.7423 1.5468 18.1993 1.41959 17.6441L1.40608 17.5757C1.25921 16.9387 1.18538 16.2875 1.186 15.6344V15.5318C1.186 13.1574 2.1532 11.0034 3.72273 9.43441L3.7208 9.43631C5.46894 7.64502 7.75575 6.45375 10.2441 6.0381L10.3136 6.0286V1.43371C10.3136 1.21146 10.4082 1.01012 10.5588 0.867654C10.6323 0.790194 10.7214 0.728717 10.8205 0.687171C10.9196 0.645626 11.0264 0.624932 11.1341 0.626417H14.6612C15.1014 0.626417 15.4585 0.977825 15.4585 1.41091V1.4432V5.91843C16.5203 6.0286 17.4894 6.23565 18.418 6.53197L18.3157 6.50348C19.2018 6.76941 19.947 7.06003 20.6633 7.39814L20.5629 7.35635C21.1961 7.66597 21.7347 7.98319 22.2444 8.33649L22.2058 8.3099C22.7206 8.66701 23.0565 8.91268 23.2135 9.04691C23.3705 9.18114 23.4999 9.29954 23.6016 9.40212C23.7404 9.51974 23.8302 9.68369 23.8538 9.86249C23.8773 10.0413 23.8328 10.2223 23.729 10.3709L23.7309 10.369L21.642 14.0844C21.5906 14.1991 21.5081 14.2977 21.4036 14.3694C21.2991 14.4411 21.1765 14.4831 21.0494 14.4909C20.9268 14.5163 20.798 14.5133 20.6767 14.4824C20.5554 14.4514 20.4431 14.3932 20.3486 14.3123H20.3505C20.299 14.2617 20.1742 14.1604 19.976 14.0084C19.7778 13.8564 19.4419 13.6317 18.9682 13.3341C18.5079 13.0457 18.0301 12.785 17.5377 12.5534L17.4566 12.5192C16.8625 12.2501 16.2448 12.0345 15.611 11.8753L15.5299 11.8582C14.8105 11.6634 14.0676 11.565 13.3214 11.5656C11.8917 11.501 10.4767 11.8898 9.28849 12.675L9.31359 12.6598C8.65609 13.0892 8.16673 13.7261 7.92602 14.4655C7.68532 15.205 7.70762 16.0031 7.98924 16.7285L7.98151 16.7057C8.15912 17.1236 8.41782 17.4769 8.74215 17.7599L8.74601 17.7618C9.05747 18.0493 9.3876 18.3222 9.73638 18.5805L9.76727 18.6014C10.1823 18.8825 10.6592 19.1466 11.1592 19.3669L11.2171 19.3897C11.8632 19.686 12.3844 19.9152 12.7808 20.0773C13.1773 20.2394 13.7809 20.4724 14.5917 20.7763C15.5055 21.1157 16.2037 21.3829 16.6863 21.5779C17.169 21.7729 17.8241 22.0699 18.6516 22.4688C19.3489 22.7906 20.0206 23.1633 20.6613 23.5838L20.6053 23.5496C21.2038 23.9675 21.7251 24.3854 22.2212 24.8318L22.2096 24.8204C22.7463 25.2813 23.1974 25.81 23.5629 26.4065L23.5803 26.4368C23.9008 26.9934 24.1769 27.6411 24.3776 28.3193L24.395 28.3838C24.6054 29.0772 24.7251 29.8749 24.7251 30.6993V30.7791V30.7753L24.7135 30.7658Z"/>
</mask>
<path d="M24.7135 30.7658L24.7155 30.9406C24.7186 33.3607 23.7973 35.6936 22.1343 37.4767L22.1401 37.4692C20.4083 39.347 18.0653 40.5722 15.5145 40.9338L15.4547 40.9414V45.4243C15.4547 45.6323 15.3707 45.8319 15.2211 45.979C15.0716 46.1261 14.8688 46.2088 14.6573 46.2088H14.6245H11.138C10.9191 46.2063 10.7099 46.1196 10.5551 45.9674C10.4003 45.8151 10.3123 45.6092 10.3098 45.3939V40.9414C9.14633 40.7889 8.00319 40.5124 6.90041 40.1171L7.01431 40.1531C5.36668 39.6115 3.82089 38.8068 2.43892 37.7712L2.47753 37.7997C2.05644 37.4977 1.65116 37.175 1.26322 36.8328L1.27673 36.8442C1.0618 36.6416 0.911216 36.4896 0.824985 36.3883C0.685414 36.2518 0.60301 36.0687 0.594073 35.8752C0.585136 35.6818 0.650316 35.4921 0.776721 35.3436L0.774791 35.3455L3.43701 31.9112C3.50818 31.822 3.59785 31.7488 3.70005 31.6964C3.80224 31.644 3.91462 31.6136 4.02969 31.6073H4.03162C4.14611 31.5864 4.26423 31.5968 4.37314 31.6373C4.48206 31.6778 4.5776 31.7469 4.64939 31.8371L4.65133 31.839L4.70152 31.8884C6.44715 33.4608 8.58339 34.5524 10.8947 35.053L10.9835 35.0701C11.5588 35.1992 12.2191 35.2733 12.8967 35.2733L13.0164 35.2752C14.3504 35.2752 15.5859 34.8649 16.6033 34.1659L16.5821 34.1792C17.0948 33.8375 17.5102 33.3724 17.7886 32.8281C18.0671 32.2838 18.1994 31.6785 18.1729 31.0697V31.0773C18.1729 30.5778 18.0281 30.1124 17.779 29.7192L17.7848 29.7306C17.5504 29.3377 17.2598 28.9801 16.9219 28.6688L16.9199 28.6669C16.4711 28.2966 15.9777 27.9821 15.4508 27.7304L15.4083 27.7114C14.7185 27.3644 14.1522 27.0928 13.7094 26.8965C13.2667 26.7002 12.5775 26.4248 11.6418 26.0702C10.97 25.7992 10.4397 25.5871 10.0511 25.4339C9.66238 25.2807 9.13212 25.0559 8.46029 24.7596C7.78846 24.4633 7.24984 24.2005 6.84442 23.9713C6.43901 23.7421 5.95187 23.4413 5.383 23.069C4.88623 22.7509 4.42028 22.3885 3.99108 21.9863L3.99301 21.9882C3.60439 21.6026 3.23706 21.1968 2.8926 20.7725L2.8675 20.7421C2.50255 20.3056 2.19928 19.8226 1.96594 19.3061L1.95049 19.2662C1.72448 18.7423 1.5468 18.1993 1.41959 17.6441L1.40608 17.5757C1.25921 16.9387 1.18538 16.2875 1.186 15.6344V15.5318C1.186 13.1574 2.1532 11.0034 3.72273 9.43441L3.7208 9.43631C5.46894 7.64502 7.75575 6.45375 10.2441 6.0381L10.3136 6.0286V1.43371C10.3136 1.21146 10.4082 1.01012 10.5588 0.867654C10.6323 0.790194 10.7214 0.728717 10.8205 0.687171C10.9196 0.645626 11.0264 0.624932 11.1341 0.626417H14.6612C15.1014 0.626417 15.4585 0.977825 15.4585 1.41091V1.4432V5.91843C16.5203 6.0286 17.4894 6.23565 18.418 6.53197L18.3157 6.50348C19.2018 6.76941 19.947 7.06003 20.6633 7.39814L20.5629 7.35635C21.1961 7.66597 21.7347 7.98319 22.2444 8.33649L22.2058 8.3099C22.7206 8.66701 23.0565 8.91268 23.2135 9.04691C23.3705 9.18114 23.4999 9.29954 23.6016 9.40212C23.7404 9.51974 23.8302 9.68369 23.8538 9.86249C23.8773 10.0413 23.8328 10.2223 23.729 10.3709L23.7309 10.369L21.642 14.0844C21.5906 14.1991 21.5081 14.2977 21.4036 14.3694C21.2991 14.4411 21.1765 14.4831 21.0494 14.4909C20.9268 14.5163 20.798 14.5133 20.6767 14.4824C20.5554 14.4514 20.4431 14.3932 20.3486 14.3123H20.3505C20.299 14.2617 20.1742 14.1604 19.976 14.0084C19.7778 13.8564 19.4419 13.6317 18.9682 13.3341C18.5079 13.0457 18.0301 12.785 17.5377 12.5534L17.4566 12.5192C16.8625 12.2501 16.2448 12.0345 15.611 11.8753L15.5299 11.8582C14.8105 11.6634 14.0676 11.565 13.3214 11.5656C11.8917 11.501 10.4767 11.8898 9.28849 12.675L9.31359 12.6598C8.65609 13.0892 8.16673 13.7261 7.92602 14.4655C7.68532 15.205 7.70762 16.0031 7.98924 16.7285L7.98151 16.7057C8.15912 17.1236 8.41782 17.4769 8.74215 17.7599L8.74601 17.7618C9.05747 18.0493 9.3876 18.3222 9.73638 18.5805L9.76727 18.6014C10.1823 18.8825 10.6592 19.1466 11.1592 19.3669L11.2171 19.3897C11.8632 19.686 12.3844 19.9152 12.7808 20.0773C13.1773 20.2394 13.7809 20.4724 14.5917 20.7763C15.5055 21.1157 16.2037 21.3829 16.6863 21.5779C17.169 21.7729 17.8241 22.0699 18.6516 22.4688C19.3489 22.7906 20.0206 23.1633 20.6613 23.5838L20.6053 23.5496C21.2038 23.9675 21.7251 24.3854 22.2212 24.8318L22.2096 24.8204C22.7463 25.2813 23.1974 25.81 23.5629 26.4065L23.5803 26.4368C23.9008 26.9934 24.1769 27.6411 24.3776 28.3193L24.395 28.3838C24.6054 29.0772 24.7251 29.8749 24.7251 30.6993V30.7791V30.7753L24.7135 30.7658Z" stroke="#0081FF" stroke-width="2" mask="url(#path-1-inside-1_172_55)"/>
</svg>
