<?xml version="1.0" encoding="UTF-8"?>
<svg version="1.1" xmlns="http://www.w3.org/2000/svg" width="500" height="500">
<path d="M0 0 C1.44155743 0.02997349 2.88315482 0.05807738 4.32478333 0.08441162 C8.08175308 0.15797538 11.83764392 0.25657843 15.59387207 0.36077881 C19.44180613 0.46296436 23.29022687 0.54094741 27.13867188 0.62109375 C34.66213146 0.78128011 42.18461573 0.96797677 49.70703125 1.171875 C50.67434027 5.46011078 50.55368512 8.74188784 49.89453125 13.109375 C49.72308594 14.29402344 49.55164063 15.47867188 49.375 16.69921875 C48.39098371 21.81495254 46.64141834 26.33590728 44.70703125 31.171875 C40.41703125 31.171875 36.12703125 31.171875 31.70703125 31.171875 C30.70005003 27.14395012 30.84326189 25.38108832 31.64453125 21.421875 C31.83917969 20.43703125 32.03382813 19.4521875 32.234375 18.4375 C32.46833984 17.31601563 32.46833984 17.31601563 32.70703125 16.171875 C25.80179549 16.28952172 18.89671645 16.41435235 11.99169922 16.54418945 C9.64244535 16.58751386 7.2931605 16.62919073 4.94384766 16.66918945 C1.56793885 16.72695215 -1.80781436 16.79062968 -5.18359375 16.85546875 C-6.76034882 16.88053749 -6.76034882 16.88053749 -8.36895752 16.90611267 C-9.8400296 16.9360305 -9.8400296 16.9360305 -11.34082031 16.96655273 C-12.2024176 16.98209702 -13.06401489 16.9976413 -13.95172119 17.01365662 C-16.1846198 17.16455292 -18.1471742 17.55349772 -20.29296875 18.171875 C-20.29296875 18.831875 -20.29296875 19.491875 -20.29296875 20.171875 C-21.28296875 20.501875 -22.27296875 20.831875 -23.29296875 21.171875 C-27.28796297 26.37747353 -29.62751188 30.99643725 -29.16796875 37.609375 C-28.53806039 42.21314966 -26.75770508 45.27600145 -24.29296875 49.171875 C-24.29296875 49.831875 -24.29296875 50.491875 -24.29296875 51.171875 C-23.34421875 51.48125 -22.39546875 51.790625 -21.41796875 52.109375 C-18.29296875 53.171875 -18.29296875 53.171875 -16.29296875 54.171875 C-16.07212251 60.26968501 -16.281292 65.38830435 -18.29296875 71.171875 C-31.11098346 66.36767491 -31.11098346 66.36767491 -35.29296875 61.171875 C-36.13859375 60.285 -36.98421875 59.398125 -37.85546875 58.484375 C-44.03663117 50.95778606 -46.09663268 40.67937087 -45.29296875 31.171875 C-43.63114948 21.73457108 -38.96353364 12.36961561 -31.04296875 6.734375 C-20.67933391 0.89797039 -11.81987388 -0.37201477 0 0 Z " fill="#08579A" transform="translate(110.29296875,190.828125)"/>
<path d="M0 0 C7.3588985 0.68554513 11.14627086 4.73301512 16 10 C21.4286825 17.58252173 23.61770095 25.15639952 22.375 34.375 C22.28234863 35.1187085 22.18969727 35.86241699 22.09423828 36.62866211 C21.29883389 42.30755163 19.76077423 46.93858059 17 52 C16.34 52 15.68 52 15 52 C14.74476563 52.59683594 14.48953125 53.19367188 14.2265625 53.80859375 C10.73382967 60.04879476 3.51722977 62.97004319 -3 65 C-6.76294054 65.90149644 -10.26921905 66.13638045 -14.13549805 66.16113281 C-15.34993088 66.17074036 -16.56436371 66.1803479 -17.81559753 66.19024658 C-19.11781754 66.19449646 -20.42003754 66.19874634 -21.76171875 66.203125 C-23.11741639 66.20888118 -24.47311402 66.21463885 -25.82881165 66.22039795 C-28.66232683 66.2308724 -31.49581391 66.2367398 -34.3293457 66.24023438 C-37.96457962 66.24574385 -41.59944365 66.26983813 -45.23456097 66.29820633 C-48.0303305 66.31679145 -50.82600961 66.32203585 -53.62183571 66.32357025 C-55.61501516 66.32807594 -57.60814627 66.34673003 -59.60124207 66.36553955 C-60.80621841 66.36253845 -62.01119476 66.35953735 -63.25268555 66.35644531 C-64.31682175 66.36009094 -65.38095795 66.36373657 -66.4773407 66.36749268 C-67.30981827 66.24622009 -68.14229584 66.12494751 -69 66 C-71.50322131 62.24516804 -71.01549392 61.1175367 -70.3125 56.75 C-70.01666016 54.89761719 -70.01666016 54.89761719 -69.71484375 53.0078125 C-68.60396985 46.64510496 -67.31253807 40.32404705 -66 34 C-61.38 34 -56.76 34 -52 34 C-51.91539352 39.49942152 -52.19233504 44.54756281 -53 50 C-46.27347695 49.95829692 -39.54777903 49.8859373 -32.82177734 49.79248047 C-30.53474379 49.76429348 -28.24761323 49.74306769 -25.96044922 49.72900391 C-22.66844094 49.70754362 -19.37759622 49.66087529 -16.0859375 49.609375 C-14.55747696 49.60753204 -14.55747696 49.60753204 -12.99813843 49.60565186 C-7.0109903 49.48274392 -3.60224471 48.912977 1 45 C1.58265625 44.50628906 2.1653125 44.01257813 2.765625 43.50390625 C6.31466157 39.17992182 7.31048529 33.40088482 7.125 27.9375 C6.59276777 23.79369191 5.40983714 22.11668952 2.375 19.3125 C-0.52536355 16.45939288 -0.97951806 15.32938996 -1.23828125 11.16796875 C-1.04633136 7.41167743 -0.57566834 3.71523768 0 0 Z " fill="#0E5B9E" transform="translate(136,235)"/>
<path d="M0 0 C2.51466133 2.357495 4.4506386 4.90127719 6 8 C6.04022391 10.3329866 6.04320247 12.66706666 6 15 C2.49852959 16.1671568 -0.32670036 16.13357453 -4 16 C-6.7839183 14.60804085 -6.97898997 12.84424221 -8 10 C-9.41543415 9.80341192 -10.83244031 9.61812454 -12.25 9.4375 C-13.03890625 9.33308594 -13.8278125 9.22867188 -14.640625 9.12109375 C-17.00532874 8.99972651 -18.7511037 9.30366743 -21 10 C-21 12.31 -21 14.62 -21 17 C-18.58394775 17.81436587 -16.16720002 18.62655397 -13.75 19.4375 C-13.06808594 19.66759766 -12.38617188 19.89769531 -11.68359375 20.13476562 C-7.74823964 21.45416227 -7.74823964 21.45416227 -3.74609375 22.546875 C-0.39736741 23.41589571 2.11480026 25.09467942 5 27 C5.9375 29.25 5.9375 29.25 6 31 C6.66 31 7.32 31 8 31 C8.62016326 42.61083431 8.62016326 42.61083431 6.4375 47.5 C-0.03661882 54.14012186 -4.90527648 56.13272197 -14.1875 56.3125 C-20.43487977 56.3125 -25.91773794 55.9272025 -31 52 C-35.06506911 47.47343754 -36.62527354 42.99562342 -37 37 C-30.565 36.505 -30.565 36.505 -24 36 C-23.67 36.99 -23.34 37.98 -23 39 C-22.34 39.66 -21.68 40.32 -21 41 C-20.34 41.99 -19.68 42.98 -19 44 C-14.31622265 45.14885105 -11.30950492 45.22004799 -7 43 C-6.67 40.36 -6.34 37.72 -6 35 C-7.27875 34.731875 -8.5575 34.46375 -9.875 34.1875 C-29.01507977 29.87721432 -29.01507977 29.87721432 -35 21 C-35.97832778 15.2523243 -35.78383373 9.7871409 -33.4375 4.4375 C-25.0716135 -3.9283865 -10.3622257 -6.5003777 0 0 Z " fill="#0D5898" transform="translate(213,221)"/>
<path d="M0 0 C0.69939697 0.00290039 1.39879395 0.00580078 2.11938477 0.00878906 C8.0094305 0.25581944 11.85994342 2.11897499 16.52734375 5.765625 C19.9997058 9.63955273 19.38416597 14.336825 19.34765625 19.296875 C19.3462413 20.02368469 19.34482635 20.75049438 19.34336853 21.49932861 C19.33778792 23.81209494 19.32523904 26.12476312 19.3125 28.4375 C19.30748249 30.00911318 19.30292002 31.58072789 19.29882812 33.15234375 C19.28782485 36.99743343 19.27057361 40.8424501 19.25 44.6875 C13.91666667 44.6875 8.58333333 44.6875 3.25 44.6875 C2.26 45.1825 2.26 45.1825 1.25 45.6875 C-4.03305214 46.21407873 -8.41862857 46.32941122 -13.25 44 C-17.42473459 40.13837051 -18.92650804 37.42813516 -19.25 31.75 C-19.13544352 28.25602722 -18.75836976 25.98840804 -16.625 23.1875 C-11.51355009 18.74276095 -6.44016306 18.39709861 0.125 18.5625 C1.15753906 18.57603516 1.15753906 18.57603516 2.2109375 18.58984375 C3.89077838 18.61317487 5.57043746 18.64903674 7.25 18.6875 C6.59 16.7075 5.93 14.7275 5.25 12.6875 C2.94 12.3575 0.63 12.0275 -1.75 11.6875 C-2.74 13.1725 -2.74 13.1725 -3.75 14.6875 C-4.41 14.6875 -5.07 14.6875 -5.75 14.6875 C-5.75 15.3475 -5.75 16.0075 -5.75 16.6875 C-9.71 16.6875 -13.67 16.6875 -17.75 16.6875 C-18.08 16.0275 -18.41 15.3675 -18.75 14.6875 C-17.96484375 12.4453125 -17.96484375 12.4453125 -16.6875 9.8125 C-16.28402344 8.94882813 -15.88054687 8.08515625 -15.46484375 7.1953125 C-11.55443679 1.47667635 -6.68486999 -0.06722484 0 0 Z M-6.75 29.6875 C-6.17547254 33.61825644 -6.17547254 33.61825644 -3.75 36.6875 C-0.87762267 37.27192963 -0.87762267 37.27192963 2.25 36.6875 C5.22958785 34.62464781 5.22958785 34.62464781 7.25 31.6875 C7.66986946 28.97586222 7.66986946 28.97586222 7.25 26.6875 C1.74633208 26.36375483 -2.18672206 26.15463966 -6.75 29.6875 Z " fill="#115D99" transform="translate(242.75,231.3125)"/>
<path d="M0 0 C11.55 0 23.1 0 35 0 C35 4.29 35 8.58 35 13 C27.74 12.67 20.48 12.34 13 12 C13 16.29 13 20.58 13 25 C15.14822266 24.87431641 15.14822266 24.87431641 17.33984375 24.74609375 C19.20571404 24.64295519 21.07160032 24.54010548 22.9375 24.4375 C23.88302734 24.38142578 24.82855469 24.32535156 25.80273438 24.26757812 C26.70185547 24.21923828 27.60097656 24.17089844 28.52734375 24.12109375 C29.35999756 24.0739624 30.19265137 24.02683105 31.05053711 23.97827148 C33 24 33 24 34 25 C34.14310287 28.6691577 34.04221662 32.32715441 34 36 C27.07 36 20.14 36 13 36 C13 43.26 13 50.52 13 58 C8.71 58 4.42 58 0 58 C0 38.86 0 19.72 0 0 Z " fill="#0F5A9B" transform="translate(344,218)"/>
<path d="M0 0 C1.21236328 0.01353516 1.21236328 0.01353516 2.44921875 0.02734375 C3.37154297 0.04474609 3.37154297 0.04474609 4.3125 0.0625 C5.41201729 3.36105186 5.38163916 5.68883867 5.3046875 9.15625 C5.28792969 10.35121094 5.27117187 11.54617187 5.25390625 12.77734375 C5.2096328 15.30093035 5.15754797 17.824392 5.09765625 20.34765625 C5.07638672 22.14009766 5.07638672 22.14009766 5.0546875 23.96875 C5.0326123 25.06509766 5.01053711 26.16144531 4.98779297 27.29101562 C5.07959843 30.07418154 5.07959843 30.07418154 6.70092773 31.92504883 C8.76848468 33.38433497 9.99553425 33.37317045 12.5 33.25 C13.758125 33.188125 15.01625 33.12625 16.3125 33.0625 C17.43433708 29.69698877 17.52050968 26.97189768 17.62890625 23.42578125 C17.67080078 22.12705078 17.71269531 20.82832031 17.75585938 19.49023438 C17.79566987 18.11849239 17.83538216 16.74674756 17.875 15.375 C17.91820835 13.99152355 17.96182339 12.60805973 18.00585938 11.22460938 C18.11208028 7.83734281 18.21412358 4.45000201 18.3125 1.0625 C22.53879214 -0.34626405 25.42153751 0.0625 30.3125 0.0625 C30.3125 14.5825 30.3125 29.1025 30.3125 44.0625 C19.3125 44.0625 19.3125 44.0625 17.3125 43.0625 C16.72210938 43.36542969 16.13171875 43.66835938 15.5234375 43.98046875 C10.42711459 46.47460558 4.02511464 45.64356568 -1.1875 43.875 C-5.11835016 41.02513364 -6.80706592 37.75483042 -7.6875 33.0625 C-7.76992194 30.60012233 -7.79493299 28.13561232 -7.78515625 25.671875 C-7.7837413 24.96726135 -7.78232635 24.26264771 -7.78086853 23.53668213 C-7.77528933 21.29524416 -7.76274073 19.05390757 -7.75 16.8125 C-7.74498231 15.28906395 -7.74041987 13.76562632 -7.73632812 12.2421875 C-7.72532674 8.51559228 -7.70807646 4.78905604 -7.6875 1.0625 C-4.80538698 0.10179566 -2.98899956 -0.04331883 0 0 Z " fill="#0B579B" transform="translate(305.6875,231.9375)"/>
<path d="M0 0 C1.51400391 0.01740234 1.51400391 0.01740234 3.05859375 0.03515625 C4.07050781 0.04417969 5.08242188 0.05320313 6.125 0.0625 C7.29869141 0.07990234 7.29869141 0.07990234 8.49609375 0.09765625 C8.82609375 1.08765625 9.15609375 2.07765625 9.49609375 3.09765625 C10.25921875 2.60265625 11.02234375 2.10765625 11.80859375 1.59765625 C16.82246385 -0.44188413 21.15623185 -0.8401134 26.49609375 0.09765625 C31.49810548 2.56700382 34.09664438 6.21515403 35.95166016 11.46679688 C37.18060589 17.40541537 36.50670657 23.57658673 36.18359375 29.59765625 C36.12022105 31.0064427 36.05835915 32.41529796 35.99804688 33.82421875 C35.84554402 37.24966752 35.67779504 40.67365288 35.49609375 44.09765625 C33.68367323 44.12452904 31.87114142 44.1439934 30.05859375 44.16015625 C29.04925781 44.17175781 28.03992188 44.18335938 27 44.1953125 C24.49609375 44.09765625 24.49609375 44.09765625 23.49609375 43.09765625 C23.37425036 41.06102327 23.31634771 39.02050473 23.28515625 36.98046875 C23.25679688 35.73394531 23.2284375 34.48742187 23.19921875 33.203125 C23.14729149 30.55743086 23.10297418 27.91157601 23.06640625 25.265625 C23.03546875 24.01652344 23.00453125 22.76742187 22.97265625 21.48046875 C22.95283691 20.32949707 22.93301758 19.17852539 22.91259766 17.99267578 C22.71445783 15.11903176 22.71445783 15.11903176 21.19677734 13.17919922 C18.33686305 11.3604481 15.66362718 12.44024365 12.49609375 13.09765625 C10.72959126 16.93127656 10.20638099 20.06627116 10.08203125 24.2734375 C10.02402344 26.00883789 10.02402344 26.00883789 9.96484375 27.77929688 C9.9184375 29.57657227 9.9184375 29.57657227 9.87109375 31.41015625 C9.81308594 33.23643555 9.81308594 33.23643555 9.75390625 35.09960938 C9.6598167 38.09871367 9.57687384 41.09816396 9.49609375 44.09765625 C5.53609375 44.09765625 1.57609375 44.09765625 -2.50390625 44.09765625 C-2.67110986 37.99225993 -2.83171058 31.88674008 -2.98608398 25.78100586 C-3.03958732 23.70218177 -3.09492283 21.62340403 -3.15209961 19.54467773 C-3.23377884 16.56374102 -3.30895463 13.58270194 -3.3828125 10.6015625 C-3.40984756 9.66615128 -3.43688263 8.73074005 -3.46473694 7.76698303 C-3.48483322 6.90616623 -3.5049295 6.04534943 -3.52563477 5.15844727 C-3.54562027 4.3967775 -3.56560577 3.63510773 -3.5861969 2.85035706 C-3.45240255 0.00068374 -2.8396673 0.11075145 0 0 Z " fill="#065294" transform="translate(405.50390625,231.90234375)"/>
<path d="M0 0 C1.51400391 0.01740234 1.51400391 0.01740234 3.05859375 0.03515625 C4.07050781 0.04417969 5.08242188 0.05320313 6.125 0.0625 C7.29869141 0.07990234 7.29869141 0.07990234 8.49609375 0.09765625 C8.55667969 0.73574219 8.61726563 1.37382812 8.6796875 2.03125 C8.80537109 3.27068359 8.80537109 3.27068359 8.93359375 4.53515625 C9.01480469 5.35886719 9.09601563 6.18257812 9.1796875 7.03125 C9.2854019 9.0842765 9.2854019 9.0842765 10.49609375 10.09765625 C11.65109375 10.09765625 12.80609375 10.09765625 13.99609375 10.09765625 C15.15109375 10.09765625 16.30609375 10.09765625 17.49609375 10.09765625 C18.49609375 11.09765625 18.49609375 11.09765625 18.62890625 13.12890625 C18.62632812 13.94359375 18.62375 14.75828125 18.62109375 15.59765625 C18.62496094 16.8196875 18.62496094 16.8196875 18.62890625 18.06640625 C18.49609375 20.09765625 18.49609375 20.09765625 17.49609375 21.09765625 C14.52609375 21.09765625 11.55609375 21.09765625 8.49609375 21.09765625 C8.82609375 28.02765625 9.15609375 34.95765625 9.49609375 42.09765625 C12.49431125 42.84721063 15.46545888 43.50836614 18.49609375 44.09765625 C19.84579568 51.58236698 19.84579568 51.58236698 18.31640625 53.8359375 C14.79485735 56.27683942 10.59526309 55.56448833 6.49609375 55.09765625 C1.72427008 53.41868126 -0.70314635 51.27196468 -3.50390625 47.09765625 C-3.95800781 44.14331055 -3.95800781 44.14331055 -3.89453125 40.921875 C-3.88164062 39.76494141 -3.86875 38.60800781 -3.85546875 37.41601562 C-3.82195312 36.21783203 -3.7884375 35.01964844 -3.75390625 33.78515625 C-3.73585938 32.56763672 -3.7178125 31.35011719 -3.69921875 30.09570312 C-3.65215756 27.09555203 -3.58641935 24.09700736 -3.50390625 21.09765625 C-5.48390625 21.09765625 -7.46390625 21.09765625 -9.50390625 21.09765625 C-9.50390625 17.46765625 -9.50390625 13.83765625 -9.50390625 10.09765625 C-7.85390625 10.09765625 -6.20390625 10.09765625 -4.50390625 10.09765625 C-4.44332031 9.45957031 -4.38273437 8.82148438 -4.3203125 8.1640625 C-4.23652344 7.33777344 -4.15273438 6.51148438 -4.06640625 5.66015625 C-3.98519531 4.83644531 -3.90398437 4.01273438 -3.8203125 3.1640625 C-3.35626367 0.13342258 -3.10968876 0.12128271 0 0 Z " fill="#125D9C" transform="translate(274.50390625,221.90234375)"/>
<path d="M0 0 C1.12581321 4.3915309 1.05445501 8.57459383 0.8125 13.0625 C0.76988037 13.86163818 0.72726074 14.66077637 0.68334961 15.48413086 C0.17524831 23.38965457 -0.84535976 31.21903851 -1.9375 39.0625 C-2.10725342 40.30588135 -2.27700684 41.5492627 -2.4519043 42.83032227 C-2.70580933 44.57140259 -2.70580933 44.57140259 -2.96484375 46.34765625 C-3.1155835 47.38929932 -3.26632324 48.43094238 -3.42163086 49.50415039 C-4 52 -4 52 -6 54 C-8.75 54.265625 -8.75 54.265625 -12 54.25 C-13.60875 54.25773437 -13.60875 54.25773437 -15.25 54.265625 C-18 54 -18 54 -20 52 C-20.046875 49.3046875 -20.046875 49.3046875 -19.75 45.875 C-19.64171875 44.60527344 -19.5334375 43.33554687 -19.421875 42.02734375 C-18.97100481 37.50003798 -18.34995742 32.99690445 -17.73364258 28.48950195 C-16.84678895 21.59626827 -16.57734682 14.68405681 -16.34179688 7.74194336 C-16.31021484 6.87964111 -16.27863281 6.01733887 -16.24609375 5.12890625 C-16.22216553 4.35619385 -16.1982373 3.58348145 -16.17358398 2.78735352 C-16 1 -16 1 -15 0 C-13.04814727 -0.26218917 -11.08748327 -0.46028318 -9.125 -0.625 C-7.52011719 -0.76808594 -7.52011719 -0.76808594 -5.8828125 -0.9140625 C-3 -1 -3 -1 0 0 Z " fill="#F79718" transform="translate(133,219)"/>
<path d="M0 0 C3.2578125 -0.29296875 3.2578125 -0.29296875 7.125 -0.1875 C9.04699219 -0.14689453 9.04699219 -0.14689453 11.0078125 -0.10546875 C11.99523437 -0.07066406 12.98265625 -0.03585938 14 0 C14.19011421 8.77844807 13.65037265 17.33916123 12.6875 26.0625 C12.56955078 27.27099609 12.45160156 28.47949219 12.33007812 29.72460938 C12.14155273 31.45614258 12.14155273 31.45614258 11.94921875 33.22265625 C11.83924561 34.26172119 11.72927246 35.30078613 11.6159668 36.37133789 C10.9446196 39.23633798 10.36211155 40.29039751 8 42 C5.37109375 42.36328125 5.37109375 42.36328125 2.4375 42.3125 C1.46683594 42.30863281 0.49617188 42.30476563 -0.50390625 42.30078125 C-3 42 -3 42 -5 40 C-5.046875 37.296875 -5.046875 37.296875 -4.75 33.75 C-4.6977124 33.10901367 -4.6454248 32.46802734 -4.59155273 31.80761719 C-4.47133247 30.36091594 -4.34589917 28.914642 -4.21630859 27.46875 C-3.97547204 24.72006008 -3.76299163 21.96979289 -3.55078125 19.21875 C-3.38903562 17.22908391 -3.22627974 15.23949968 -3.0625 13.25 C-2.95083496 11.80318848 -2.95083496 11.80318848 -2.83691406 10.32714844 C-2.75795898 9.4199707 -2.67900391 8.51279297 -2.59765625 7.578125 C-2.53070557 6.76762695 -2.46375488 5.95712891 -2.39477539 5.12207031 C-2 3 -2 3 0 0 Z " fill="#F5991C" transform="translate(100,231)"/>
<path d="M0 0 C1.30804107 3.92412321 1.14277084 7.66417269 1.1328125 11.75390625 C1.13376923 12.61056381 1.13472595 13.46722137 1.13571167 14.34983826 C1.13639186 16.15957716 1.13454876 17.96931852 1.13037109 19.77905273 C1.12501403 22.55523122 1.13032487 25.33124839 1.13671875 28.10742188 C1.13605807 29.86458369 1.13477711 31.62174541 1.1328125 33.37890625 C1.13483673 34.21224991 1.13686096 35.04559357 1.13894653 35.90419006 C1.11496365 41.77007269 1.11496365 41.77007269 0 44 C-3.96 44 -7.92 44 -12 44 C-12.90208123 41.2937563 -13.12227599 39.76149014 -13.11352539 36.98754883 C-13.11344986 36.18694534 -13.11337433 35.38634186 -13.11329651 34.56147766 C-13.10813522 33.70201035 -13.10297394 32.84254303 -13.09765625 31.95703125 C-13.0962413 31.0734343 -13.09482635 30.18983734 -13.09336853 29.27946472 C-13.08777069 26.45710872 -13.07521861 23.63483203 -13.0625 20.8125 C-13.05748472 18.89908969 -13.05292186 16.98567813 -13.04882812 15.07226562 C-13.03780197 10.38147986 -13.02053883 5.69075337 -13 1 C-7.95919623 -1.13896525 -5.34429776 -0.90581318 0 0 Z " fill="#02579C" transform="translate(396,232)"/>
<path d="M0 0 C5.02274319 2.96798461 8.60274946 6.00467587 10.61303711 11.75292969 C11.14829924 14.86116481 10.99905884 17.80245705 10.87890625 20.953125 C10.85529526 21.61334656 10.83168427 22.27356812 10.80735779 22.95379639 C10.7310719 25.052769 10.64689847 27.15133949 10.5625 29.25 C10.5092441 30.67706397 10.45650396 32.10414728 10.40429688 33.53125 C10.27550501 37.02107733 10.13963981 40.51058798 10 44 C8.18757948 44.02687279 6.37504767 44.04633715 4.5625 44.0625 C3.55316406 44.07410156 2.54382813 44.08570313 1.50390625 44.09765625 C-1 44 -1 44 -2 43 C-2.12184339 40.96336702 -2.17974604 38.92284848 -2.2109375 36.8828125 C-2.23929687 35.63628906 -2.26765625 34.38976562 -2.296875 33.10546875 C-2.34880226 30.45977461 -2.39311957 27.81391976 -2.4296875 25.16796875 C-2.460625 23.91886719 -2.4915625 22.66976562 -2.5234375 21.3828125 C-2.54325684 20.23184082 -2.56307617 19.08086914 -2.58349609 17.89501953 C-2.77965071 15.01941356 -2.77965071 15.01941356 -4.31103516 13.08544922 C-7.18254659 11.24001125 -9.80761907 12.31591837 -13 13 C-13.99 13.33 -14.98 13.66 -16 14 C-16 13.01 -16 12.02 -16 11 C-13.426671 9.7133355 -11.49776962 9.83175449 -8.625 9.8125 C-7.19027344 9.79123047 -7.19027344 9.79123047 -5.7265625 9.76953125 C-2.96989983 10.00254428 -1.35052605 10.59079836 1 12 C1 10.68 1 9.36 1 8 C0.34 8 -0.32 8 -1 8 C-1 7.34 -1 6.68 -1 6 C-0.01 5.34 0.98 4.68 2 4 C1.34 2.68 0.68 1.36 0 0 Z " fill="#155E9C" transform="translate(431,232)"/>
<path d="M0 0 C0.33 0 0.66 0 1 0 C1 10.89 1 21.78 1 33 C-4.33333333 33 -9.66666667 33 -15 33 C-15.99 33.495 -15.99 33.495 -17 34 C-22.28305214 34.52657873 -26.66862857 34.64191122 -31.5 32.3125 C-35.67473459 28.45087051 -37.17650804 25.74063516 -37.5 20.0625 C-37.38544352 16.56852722 -37.00836976 14.30090804 -34.875 11.5 C-29.52781436 6.85027336 -24.77306563 6.76644601 -18 7 C-18 7.33 -18 7.66 -18 8 C-21.3 8.33 -24.6 8.66 -28 9 C-28 10.32 -28 11.64 -28 13 C-28.2981424 14.34164079 -28.62243192 15.67851173 -29 17 C-28.2575 16.505 -27.515 16.01 -26.75 15.5 C-24 14 -24 14 -20 14 C-20 14.66 -20 15.32 -20 16 C-21.98 16.99 -21.98 16.99 -24 18 C-23.62095792 21.29075996 -23.62095792 21.29075996 -22 24 C-18.63370749 24.14636054 -16.21580438 24.07193479 -13 23 C-12.67 22.34 -12.34 21.68 -12 21 C-11.7525 22.11375 -11.505 23.2275 -11.25 24.375 C-10.39208967 28.00447546 -10.39208967 28.00447546 -8.0625 29.375 C-7.0415625 29.684375 -7.0415625 29.684375 -6 30 C-5.01 30.33 -4.02 30.66 -3 31 C-2.01 31 -1.02 31 0 31 C0 20.77 0 10.54 0 0 Z " fill="#135D9D" transform="translate(261,243)"/>
<path d="M0 0 C0.66 0 1.32 0 2 0 C2 10.56 2 21.12 2 32 C-0.97 32.495 -0.97 32.495 -4 33 C-4.66 32.34 -5.32 31.68 -6 31 C-6.99 30.67 -7.98 30.34 -9 30 C-11.17039373 25.65921255 -9.99178755 20.5732426 -9 16 C-11.0622048 15.945652 -13.12482816 15.90705039 -15.1875 15.875 C-16.33605469 15.85179687 -17.48460937 15.82859375 -18.66796875 15.8046875 C-21.91740372 15.99515848 -24.08660521 16.60639873 -27 18 C-27.625 15.6875 -27.625 15.6875 -28 13 C-26 10 -26 10 -23.42578125 9.19921875 C-17.29491898 8.19151115 -12.80511706 7.62517939 -7 10 C-7 9.01 -7 8.02 -7 7 C-4.6875 4.75 -4.6875 4.75 -2 3 C-1.01 3.33 -0.02 3.66 1 4 C0.67 2.68 0.34 1.36 0 0 Z " fill="#09579A" transform="translate(259,242)"/>
<path d="M0 0 C2.33294775 -0.04241723 4.66702567 -0.04092937 7 0 C8 1 8 1 8.11352539 4.69360352 C8.11336624 6.33871292 8.10766988 7.98382731 8.09765625 9.62890625 C8.0962413 10.49313705 8.09482635 11.35736786 8.09336853 12.24778748 C8.08775239 15.01939292 8.07519719 17.7909188 8.0625 20.5625 C8.05748708 22.4368478 8.05292381 24.31119685 8.04882812 26.18554688 C8.03777772 30.79039544 8.0205023 35.39518421 8 40 C4.37 40 0.74 40 -3 40 C-3.25260299 31.7904029 -3.25260299 31.7904029 -2.03125 27.96875 C-0.40399017 22.63719994 -0.53255597 17.0933712 -0.375 11.5625 C-0.33632813 10.44939453 -0.29765625 9.33628906 -0.2578125 8.18945312 C-0.16409034 5.45979524 -0.07837706 2.73013437 0 0 Z " fill="#04579D" transform="translate(327,235)"/>
<path d="M0 0 C7.3588985 0.68554513 11.14627086 4.73301512 16 10 C22.48106594 19.05244014 23.31746389 27.15762824 22 38 C21.67 38 21.34 38 21 38 C21 33.38 21 28.76 21 24 C20.34 24 19.68 24 19 24 C18.87625 23.030625 18.7525 22.06125 18.625 21.0625 C18.41875 20.051875 18.2125 19.04125 18 18 C17.34 17.67 16.68 17.34 16 17 C15.27840576 15.35636866 14.60648579 13.68949614 14 12 C13.34 12 12.68 12 12 12 C11.67 12.99 11.34 13.98 11 15 C10.01 15.66 9.02 16.32 8 17 C7.63583953 19.43693311 7.63583953 19.43693311 7.8125 22.125 C7.83957031 23.03507812 7.86664063 23.94515625 7.89453125 24.8828125 C7.92933594 25.58148438 7.96414062 26.28015625 8 27 C7.74605469 26.40832031 7.49210938 25.81664062 7.23046875 25.20703125 C5.87715655 22.77966175 4.38553575 21.5166492 2.3125 19.6875 C-0.46110881 16.67893672 -0.98142812 15.30550746 -1.234375 11.14453125 C-1.0449668 7.39584573 -0.57448299 3.70758772 0 0 Z " fill="#206098" transform="translate(136,235)"/>
<path d="M0 0 C1.48754006 0.73325207 2.96486192 1.48726078 4.4375 2.25 C5.67306641 2.87648437 5.67306641 2.87648437 6.93359375 3.515625 C9 5 9 5 9.78515625 7.171875 C9.85605469 7.77515625 9.92695313 8.3784375 10 9 C10.66 9 11.32 9 12 9 C12.62289264 20.66193434 12.62289264 20.66193434 10.3125 25.625 C8.02057868 27.97886514 5.93186885 29.53406557 3 31 C3 29.68 3 28.36 3 27 C3.64066406 26.76152344 4.28132813 26.52304687 4.94140625 26.27734375 C7.17615916 25.18994603 7.17615916 25.18994603 7.71484375 22.94140625 C7.78832031 22.15636719 7.86179688 21.37132812 7.9375 20.5625 C8.02902344 19.78003906 8.12054688 18.99757813 8.21484375 18.19140625 C8.19784753 15.8949247 8.19784753 15.8949247 6.50390625 14.21484375 C6.00761719 13.81394531 5.51132813 13.41304688 5 13 C4.9071875 14.0828125 4.9071875 14.0828125 4.8125 15.1875 C3.75776574 18.83850322 1.71850074 20.42090955 -1 23 C-1 23.66 -1 24.32 -1 25 C-3.31 24.67 -5.62 24.34 -8 24 C-7.38125 23.7525 -6.7625 23.505 -6.125 23.25 C-3.5621636 21.74244918 -2.95685553 20.79082862 -2 18 C-1.83249586 15.33290931 -1.83249586 15.33290931 -2 13 C-2.60328125 12.87882813 -3.2065625 12.75765625 -3.828125 12.6328125 C-5.02695313 12.38144531 -5.02695313 12.38144531 -6.25 12.125 C-7.03890625 11.96257812 -7.8278125 11.80015625 -8.640625 11.6328125 C-10.96831144 11.00849925 -12.89031952 10.15161458 -15 9 C-15 8.67 -15 8.34 -15 8 C-13.71802734 8.01740234 -13.71802734 8.01740234 -12.41015625 8.03515625 C-10.75306641 8.04869141 -10.75306641 8.04869141 -9.0625 8.0625 C-7.40927734 8.07990234 -7.40927734 8.07990234 -5.72265625 8.09765625 C-3.08552366 8.31262571 -3.08552366 8.31262571 -2 7 C-1.67 6.34 -1.34 5.68 -1 5 C0.32 5 1.64 5 3 5 C3 4.34 3 3.68 3 3 C2.01 3 1.02 3 0 3 C0 2.01 0 1.02 0 0 Z " fill="#135A9B" transform="translate(209,243)"/>
<path d="M0 0 C2.51466133 2.357495 4.4506386 4.90127719 6 8 C6.04022391 10.3329866 6.04320247 12.66706666 6 15 C2.49852959 16.1671568 -0.32670036 16.13357453 -4 16 C-4.66 15.67 -5.32 15.34 -6 15 C-5.67 14.01 -5.34 13.02 -5 12 C-2.03 12.33 0.94 12.66 4 13 C3.505 10.03 3.505 10.03 3 7 C2.34 7 1.68 7 1 7 C0.505 6.01 0.505 6.01 0 5 C-1.21558594 5.08378906 -2.43117187 5.16757813 -3.68359375 5.25390625 C-5.26821121 5.35704703 -6.85284765 5.45989661 -8.4375 5.5625 C-9.64116211 5.64661133 -9.64116211 5.64661133 -10.86914062 5.73242188 C-12.91062111 5.8616295 -14.95546369 5.9351273 -17 6 C-17.33 5.67 -17.66 5.34 -18 5 C-18.33 5.66 -18.66 6.32 -19 7 C-20.32 7 -21.64 7 -23 7 C-23.33 5.35 -23.66 3.7 -24 2 C-27.16115776 3.36983503 -27.9927092 3.9890638 -30 7 C-31.32 6.67 -32.64 6.34 -34 6 C-25.31406679 -3.18227225 -11.57669764 -7.26223394 0 0 Z " fill="#03579C" transform="translate(213,221)"/>
<path d="M0 0 C0.99 0.33 1.98 0.66 3 1 C3 2.65 3 4.3 3 6 C4.32 6 5.64 6 7 6 C7.33 4.68 7.66 3.36 8 2 C8.99 2.33 9.98 2.66 11 3 C10.34 3 9.68 3 9 3 C9 3.66 9 4.32 9 5 C9.96421875 4.84402344 10.9284375 4.68804687 11.921875 4.52734375 C13.18515625 4.33269531 14.4484375 4.13804687 15.75 3.9375 C17.00296875 3.74027344 18.2559375 3.54304687 19.546875 3.33984375 C22.50016589 3.04919182 24.2602414 3.01064273 27 4 C27 4.66 27 5.32 27 6 C27.66 6 28.32 6 29 6 C29.495 8.97 29.495 8.97 30 12 C28.56344146 12.08131463 27.1255517 12.13933559 25.6875 12.1875 C24.48673828 12.23970703 24.48673828 12.23970703 23.26171875 12.29296875 C20.46077179 11.93015179 19.88797129 11.00944933 18 9 C14.51372781 7.65022648 10.946407 7.90053593 7.25 7.9375 C5.49429688 7.95103516 5.49429688 7.95103516 3.703125 7.96484375 C2.81109375 7.97644531 1.9190625 7.98804688 1 8 C1 9.98 1 11.96 1 14 C0.34 14 -0.32 14 -1 14 C-1 14.99 -1 15.98 -1 17 C-1.804375 17.12375 -2.60875 17.2475 -3.4375 17.375 C-4.283125 17.58125 -5.12875 17.7875 -6 18 C-6.33 18.66 -6.66 19.32 -7 20 C-6.979375 18.989375 -6.95875 17.97875 -6.9375 16.9375 C-6.99687734 13.19672743 -7.39795085 9.68755102 -8 6 C-7.4225 5.7525 -6.845 5.505 -6.25 5.25 C-3.6997003 3.83316683 -1.98214299 2.12372463 0 0 Z " fill="#05559A" transform="translate(187,222)"/>
<path d="M0 0 C11.55 0 23.1 0 35 0 C35 4.29 35 8.58 35 13 C34.34 12.34 33.68 11.68 33 11 C33.0234375 8.8359375 33.0234375 8.8359375 33.375 6.375 C33.48585938 5.55773437 33.59671875 4.74046875 33.7109375 3.8984375 C33.85402344 2.95871094 33.85402344 2.95871094 34 2 C33.01 2.33 32.02 2.66 31 3 C29.2020178 3.13733972 27.39998708 3.2246307 25.59765625 3.28125 C24.54255859 3.31863281 23.48746094 3.35601562 22.40039062 3.39453125 C21.29888672 3.42933594 20.19738281 3.46414062 19.0625 3.5 C16.88659087 3.56899536 14.71079716 3.64175966 12.53515625 3.71875 C11.569729 3.74904297 10.60430176 3.77933594 9.60961914 3.81054688 C6.73768038 3.94399203 6.73768038 3.94399203 3 5 C3 21.83 3 38.66 3 56 C5.31 56 7.62 56 10 56 C10 56.33 10 56.66 10 57 C2.25 57.125 2.25 57.125 0 56 C0 37.52 0 19.04 0 0 Z " fill="#326BA3" transform="translate(344,218)"/>
<path d="M0 0 C1.97303774 1.97303774 2.77145934 3.54291869 4 6 C5.95216435 7.95216435 7.53199953 8.84826645 10 10 C8.02 10.66 6.04 11.32 4 12 C4.33 12.66 4.66 13.32 5 14 C4.01 15.485 4.01 15.485 3 17 C3 17.66 3 18.32 3 19 C-1.16961611 18.30506398 -4.62224303 17.61542933 -7.44921875 14.30078125 C-10.26914066 9.77289403 -11.66629832 6.33922695 -12 1 C-10.04310341 0.77857745 -8.08438048 0.5732432 -6.125 0.375 C-4.48917969 0.20097656 -4.48917969 0.20097656 -2.8203125 0.0234375 C-1.88960937 0.01570313 -0.95890625 0.00796875 0 0 Z " fill="#135C9C" transform="translate(188,257)"/>
<path d="M0 0 C1.30804107 3.92412321 1.14277084 7.66417269 1.1328125 11.75390625 C1.13376923 12.61056381 1.13472595 13.46722137 1.13571167 14.34983826 C1.13639186 16.15957716 1.13454876 17.96931852 1.13037109 19.77905273 C1.12501403 22.55523122 1.13032487 25.33124839 1.13671875 28.10742188 C1.13605807 29.86458369 1.13477711 31.62174541 1.1328125 33.37890625 C1.13483673 34.21224991 1.13686096 35.04559357 1.13894653 35.90419006 C1.11496365 41.77007269 1.11496365 41.77007269 0 44 C-3.96 44 -7.92 44 -12 44 C-12.90208123 41.2937563 -13.12227599 39.76149014 -13.11352539 36.98754883 C-13.11344986 36.18694534 -13.11337433 35.38634186 -13.11329651 34.56147766 C-13.10813522 33.70201035 -13.10297394 32.84254303 -13.09765625 31.95703125 C-13.0962413 31.0734343 -13.09482635 30.18983734 -13.09336853 29.27946472 C-13.08777069 26.45710872 -13.07521861 23.63483203 -13.0625 20.8125 C-13.05748472 18.89908969 -13.05292186 16.98567813 -13.04882812 15.07226562 C-13.03780197 10.38147986 -13.02053883 5.69075337 -13 1 C-7.95919623 -1.13896525 -5.34429776 -0.90581318 0 0 Z M-11 3 C-11 15.87 -11 28.74 -11 42 C-8.36 42.33 -5.72 42.66 -3 43 C-1.64499008 29.69186686 -1.90205736 16.35937626 -2 3 C-4.97 3 -7.94 3 -11 3 Z " fill="#305683" transform="translate(396,232)"/>
<path d="M0 0 C2.64 0 5.28 0 8 0 C8.28722442 20.64824454 8.28722442 20.64824454 5.51953125 23.5546875 C5.01808594 24.03164063 4.51664062 24.50859375 4 25 C3.67 25.99 3.34 26.98 3 28 C2.01 28 1.02 28 0 28 C0 18.76 0 9.52 0 0 Z " fill="#03559A" transform="translate(300,234)"/>
<path d="M0 0 C1.625 0.828125 1.625 0.828125 3.875 2.328125 C3.875 3.648125 3.875 4.968125 3.875 6.328125 C1.895 7.318125 1.895 7.318125 -0.125 8.328125 C-0.125 7.668125 -0.125 7.008125 -0.125 6.328125 C-3.755 6.328125 -7.385 6.328125 -11.125 6.328125 C-11.125 5.668125 -11.125 5.008125 -11.125 4.328125 C-11.785 4.328125 -12.445 4.328125 -13.125 4.328125 C-12.795 6.638125 -12.465 8.948125 -12.125 11.328125 C-15.755 11.328125 -19.385 11.328125 -23.125 11.328125 C-23.125 8.328125 -23.125 8.328125 -21.6875 6.828125 C-21.171875 6.333125 -20.65625 5.838125 -20.125 5.328125 C-19.795 4.338125 -19.465 3.348125 -19.125 2.328125 C-18.135 2.328125 -17.145 2.328125 -16.125 2.328125 C-16.125 1.668125 -16.125 1.008125 -16.125 0.328125 C-11.66129461 -1.90372769 -4.69137829 -1.48330343 0 0 Z " fill="#03569C" transform="translate(251.125,234.671875)"/>
<path d="M0 0 C2 1.5625 2 1.5625 3 4 C3.4375 7.5625 3.4375 7.5625 3 11 C0.78774156 13.63769276 -0.59385968 13.94923246 -4 14.375 C-7.36371258 13.95453593 -8.69942263 13.47099051 -11 11 C-12.13215181 7.92701652 -12.11841605 6.40079279 -11.1875 3.25 C-8.87543052 -1.13076322 -4.46591294 -0.63929224 0 0 Z " fill="#145792" transform="translate(394,216)"/>
<path d="M0 0 C3.2578125 -0.29296875 3.2578125 -0.29296875 7.125 -0.1875 C9.04699219 -0.14689453 9.04699219 -0.14689453 11.0078125 -0.10546875 C11.99523437 -0.07066406 12.98265625 -0.03585938 14 0 C14.22012309 8.86606897 13.56035267 17.45193864 12.5 26.25 C12.28537109 28.10044922 12.28537109 28.10044922 12.06640625 29.98828125 C11.71702533 32.99295714 11.36146572 35.99675822 11 39 C10.67 39 10.34 39 10 39 C9.05879759 30.83325905 9.05879759 23.16674095 10 15 C10.66 15 11.32 15 12 15 C12 11.04 12 7.08 12 3 C8.37 3 4.74 3 1 3 C0.67 8.94 0.34 14.88 0 21 C-0.99 21.33 -1.98 21.66 -3 22 C-2.89008434 18.89510601 -2.75946585 15.79142006 -2.625 12.6875 C-2.5940625 11.80642578 -2.563125 10.92535156 -2.53125 10.01757812 C-2.47324219 8.74624023 -2.47324219 8.74624023 -2.4140625 7.44921875 C-2.3826416 6.66893311 -2.3512207 5.88864746 -2.31884766 5.0847168 C-2 3 -2 3 0 0 Z " fill="#D69747" transform="translate(100,231)"/>
<path d="M0 0 C7.50769231 -0.36923077 7.50769231 -0.36923077 10 1.5 C10.33 1.995 10.66 2.49 11 3 C9.02 3.99 9.02 3.99 7 5 C7 5.66 7 6.32 7 7 C7.66 7 8.32 7 9 7 C9 8.32 9 9.64 9 11 C8.45472656 10.83757812 7.90945313 10.67515625 7.34765625 10.5078125 C4.6540846 9.92517637 2.19221439 9.86750418 -0.5625 9.875 C-1.51253906 9.87242187 -2.46257812 9.86984375 -3.44140625 9.8671875 C-6.1212438 9.89229006 -6.1212438 9.89229006 -9 11 C-9 9.68 -9 8.36 -9 7 C-8.34 7 -7.68 7 -7 7 C-6.6596875 6.0409375 -6.6596875 6.0409375 -6.3125 5.0625 C-5 3 -5 3 -2.375 2.25 C-1.59125 2.1675 -0.8075 2.085 0 2 C0 1.34 0 0.68 0 0 Z " fill="#065498" transform="translate(423,233)"/>
<path d="M0 0 C0.66 1.32 1.32 2.64 2 4 C22.46 4 42.92 4 64 4 C64 4.66 64 5.32 64 6 C60.77141906 7.07619365 58.45460721 7.12052496 55.05981445 7.11352539 C53.83877518 7.11344986 52.6177359 7.11337433 51.35969543 7.11329651 C50.04087875 7.10813522 48.72206207 7.10297394 47.36328125 7.09765625 C45.99993441 7.0957908 44.63658689 7.0943675 43.27323914 7.09336853 C39.68771509 7.08955332 36.10223165 7.07973155 32.51672363 7.06866455 C28.8568578 7.05842901 25.1969854 7.05386632 21.53710938 7.04882812 C14.35805442 7.03810838 7.1790329 7.02104393 0 7 C-1.04449911 3.86650268 -0.93423645 3.01031744 0 0 Z " fill="#6691B7" transform="translate(67,294)"/>
<path d="M0 0 C0.12375 0.639375 0.2475 1.27875 0.375 1.9375 C0.58125 2.618125 0.7875 3.29875 1 4 C1.66 4.33 2.32 4.66 3 5 C3 6.98 3 8.96 3 11 C2.01 11.495 2.01 11.495 1 12 C1 10.02 1 8.04 1 6 C-1.22972273 6.11465421 -3.45878753 6.24214766 -5.6875 6.375 C-7.54955078 6.47941406 -7.54955078 6.47941406 -9.44921875 6.5859375 C-12.69317772 6.96422094 -15.06567185 7.61979976 -18 9 C-18.625 6.6875 -18.625 6.6875 -19 4 C-17 1 -17 1 -14.86328125 0.234375 C-9.54539635 -0.77545307 -5.30369701 -1.15297761 0 0 Z " fill="#0A4D88" transform="translate(250,251)"/>
<path d="M0 0 C3.3 0 6.6 0 10 0 C10 14.52 10 29.04 10 44 C6.37 44 2.74 44 -1 44 C-1 43.67 -1 43.34 -1 43 C2.3 43 5.6 43 9 43 C8.67 30.13 8.34 17.26 8 4 C5.69 3.67 3.38 3.34 1 3 C1.01047363 3.71655762 1.02094727 4.43311523 1.03173828 5.17138672 C1.07321299 8.40588905 1.09929892 11.64033553 1.125 14.875 C1.14175781 16.00292969 1.15851563 17.13085938 1.17578125 18.29296875 C1.18222656 19.36933594 1.18867188 20.44570312 1.1953125 21.5546875 C1.20578613 22.54968262 1.21625977 23.54467773 1.22705078 24.56982422 C1 27 1 27 -1 29 C-1.02465881 25.03069011 -1.04284023 21.06140966 -1.05493164 17.09204102 C-1.05997057 15.74079614 -1.06680177 14.38955674 -1.07543945 13.03833008 C-1.08752419 11.09979566 -1.09269828 9.161222 -1.09765625 7.22265625 C-1.10289307 6.05484619 -1.10812988 4.88703613 -1.11352539 3.68383789 C-1 1 -1 1 0 0 Z " fill="#13497B" transform="translate(326,232)"/>
<path d="M0 0 C1.21236328 0.01353516 1.21236328 0.01353516 2.44921875 0.02734375 C3.37154297 0.04474609 3.37154297 0.04474609 4.3125 0.0625 C5.22726665 2.80679996 5.50488444 4.65283094 5.5625 7.5 C5.58828125 8.26183594 5.6140625 9.02367187 5.640625 9.80859375 C5.3125 12.0625 5.3125 12.0625 2.3125 16.0625 C2.3125 11.4425 2.3125 6.8225 2.3125 2.0625 C-0.3275 2.0625 -2.9675 2.0625 -5.6875 2.0625 C-5.6875 12.2925 -5.6875 22.5225 -5.6875 33.0625 C-6.3475 33.0625 -7.0075 33.0625 -7.6875 33.0625 C-7.6875 22.5025 -7.6875 11.9425 -7.6875 1.0625 C-4.80538698 0.10179566 -2.98899956 -0.04331883 0 0 Z " fill="#1E4C7C" transform="translate(305.6875,231.9375)"/>
<path d="M0 0 C1.02867187 -0.02320313 1.02867187 -0.02320313 2.078125 -0.046875 C7.36575688 -0.0065114 9.99059472 1.34259334 14 4.5 C11 5.5 11 5.5 8.76953125 4.5703125 C5.27461352 3.21966728 2.42183184 3.3051994 -1.3125 3.375 C-2.56675781 3.39304688 -3.82101563 3.41109375 -5.11328125 3.4296875 C-6.54220703 3.46449219 -6.54220703 3.46449219 -8 3.5 C-8 4.16 -8 4.82 -8 5.5 C-8.99 5.5 -9.98 5.5 -11 5.5 C-11.103125 6.0775 -11.20625 6.655 -11.3125 7.25 C-12.09792798 9.82049158 -13.30504197 11.43657284 -15 13.5 C-12.03 13.83 -9.06 14.16 -6 14.5 C-6 15.16 -6 15.82 -6 16.5 C-9.96 16.5 -13.92 16.5 -18 16.5 C-18.33 15.84 -18.66 15.18 -19 14.5 C-18.21484375 12.2578125 -18.21484375 12.2578125 -16.9375 9.625 C-16.53402344 8.76132813 -16.13054687 7.89765625 -15.71484375 7.0078125 C-11.67955683 1.10655007 -6.84162043 -0.15432227 0 0 Z " fill="#39658B" transform="translate(243,231.5)"/>
<path d="M0 0 C1.245899 4.67446318 0.9751413 9.03880683 0.6875 13.8125 C0.64117432 14.64112549 0.59484863 15.46975098 0.54711914 16.32348633 C0.06150376 24.26530543 -0.88125737 32.12535529 -2 40 C-2.33 40 -2.66 40 -3 40 C-3.13809004 27.29571603 -2.74136918 14.68270851 -2 2 C-5.96 2 -9.92 2 -14 2 C-14.33 7.28 -14.66 12.56 -15 18 C-15.33 18 -15.66 18 -16 18 C-16.02684312 15.18743719 -16.04676188 12.37512759 -16.0625 9.5625 C-16.07087891 8.76005859 -16.07925781 7.95761719 -16.08789062 7.13085938 C-16.0965143 5.08704779 -16.0522815 3.04316098 -16 1 C-14.21010608 -0.78989392 -11.55229071 -0.42127056 -9.125 -0.625 C-7.52011719 -0.76808594 -7.52011719 -0.76808594 -5.8828125 -0.9140625 C-3 -1 -3 -1 0 0 Z " fill="#E5B368" transform="translate(133,219)"/>
<path d="M0 0 C0.33 0.99 0.66 1.98 1 3 C1.66 3 2.32 3 3 3 C3.33 4.98 3.66 6.96 4 9 C2.56344146 9.08131463 1.1255517 9.13933559 -0.3125 9.1875 C-1.51326172 9.23970703 -1.51326172 9.23970703 -2.73828125 9.29296875 C-5.53143171 8.9311617 -6.15799747 8.04666948 -8 6 C-11.10007201 4.79950593 -11.10007201 4.79950593 -14 4 C-13 2 -13 2 -9.8125 0.875 C-6.36250398 0.08319763 -3.515707 -0.1714979 0 0 Z " fill="#195B96" transform="translate(213,225)"/>
<path d="M0 0 C0.33 0 0.66 0 1 0 C1 10.89 1 21.78 1 33 C-5 33 -11 33 -17 33 C-17 32.34 -17 31.68 -17 31 C-16.34 31 -15.68 31 -15 31 C-14.34 29.35 -13.68 27.7 -13 26 C-15.64 26 -18.28 26 -21 26 C-21 25.67 -21 25.34 -21 25 C-20.43410156 24.87882812 -19.86820313 24.75765625 -19.28515625 24.6328125 C-18.55167969 24.46523438 -17.81820312 24.29765625 -17.0625 24.125 C-16.33160156 23.96257812 -15.60070312 23.80015625 -14.84765625 23.6328125 C-12.79299706 23.17038477 -12.79299706 23.17038477 -12 21 C-11.7525 22.11375 -11.505 23.2275 -11.25 24.375 C-10.39208967 28.00447546 -10.39208967 28.00447546 -8.0625 29.375 C-7.381875 29.58125 -6.70125 29.7875 -6 30 C-5.01 30.33 -4.02 30.66 -3 31 C-2.01 31 -1.02 31 0 31 C0 20.77 0 10.54 0 0 Z " fill="#325F8E" transform="translate(261,243)"/>
<path d="M0 0 C0.98484375 0.00902344 1.9696875 0.01804687 2.984375 0.02734375 C4.10585937 0.04474609 4.10585937 0.04474609 5.25 0.0625 C5.25 1.0525 5.25 2.0425 5.25 3.0625 C4.59 3.0625 3.93 3.0625 3.25 3.0625 C3.91 4.3825 4.57 5.7025 5.25 7.0625 C2.10069107 8.11226964 -0.13814456 8.16381595 -3.4375 8.125 C-4.43136719 8.11597656 -5.42523438 8.10695313 -6.44921875 8.09765625 C-7.58810547 8.08025391 -7.58810547 8.08025391 -8.75 8.0625 C-9.08 6.7425 -9.41 5.4225 -9.75 4.0625 C-9.09 3.7325 -8.43 3.4025 -7.75 3.0625 C-8.41 2.4025 -9.07 1.7425 -9.75 1.0625 C-6.43929162 0.06140485 -3.44915231 -0.04106134 0 0 Z " fill="#03569D" transform="translate(199.75,266.9375)"/>
<path d="M0 0 C1.32 0 2.64 0 4 0 C4.22084624 6.09781001 4.01167675 11.21642935 2 17 C-10.85421412 12.18223235 -10.85421412 12.18223235 -15 7 C-14.34 6.67 -13.68 6.34 -13 6 C-13 6.66 -13 7.32 -13 8 C-10.36 8.33 -7.72 8.66 -5 9 C-5 9.66 -5 10.32 -5 11 C-3.35 11 -1.7 11 0 11 C0.185625 9.741875 0.37125 8.48375 0.5625 7.1875 C0.66691406 6.47980469 0.77132812 5.77210938 0.87890625 5.04296875 C1.13904799 2.7974658 1.13904799 2.7974658 0 0 Z " fill="#2F6090" transform="translate(90,245)"/>
<path d="M0 0 C13.86 0 27.72 0 42 0 C42 4.29 42 8.58 42 13 C47.94 12.505 47.94 12.505 54 12 C53.67 13.32 53.34 14.64 53 16 C48.71 16 44.42 16 40 16 C39 12 39 12 41 1 C27.47 1 13.94 1 0 1 C0 0.67 0 0.34 0 0 Z " fill="#8DA3C1" transform="translate(102,206)"/>
<path d="M0 0 C4.75 0.875 4.75 0.875 7 2 C6.85957123 3.64630328 6.71250671 5.29204179 6.5625 6.9375 C6.48128906 7.85402344 6.40007812 8.77054688 6.31640625 9.71484375 C6 12 6 12 5 13 C2 13.125 2 13.125 -1 13 C-2 12 -2 12 -2.1875 8.75 C-2.01338941 5.26778825 -1.50198876 3.09785183 0 0 Z " fill="#105998" transform="translate(137,238)"/>
<path d="M0 0 C1 3 1 3 0.0625 5.1875 C-0.288125 5.785625 -0.63875 6.38375 -1 7 C-1.33 5.68 -1.66 4.36 -2 3 C-4.97 3 -7.94 3 -11 3 C-11 15.87 -11 28.74 -11 42 C-11.99 42.495 -11.99 42.495 -13 43 C-13 29.14 -13 15.28 -13 1 C-7.33795607 -1.26481757 -5.71891941 -0.96930837 0 0 Z " fill="#3D6993" transform="translate(396,232)"/>
<path d="M0 0 C0.33 0 0.66 0 1 0 C1.04954105 5.17780166 1.08578636 10.35546446 1.10986328 15.53344727 C1.11990351 17.29388839 1.13353844 19.05431291 1.15087891 20.81469727 C1.17521436 23.34916285 1.18650296 25.88340739 1.1953125 28.41796875 C1.20563507 29.20149216 1.21595764 29.98501556 1.22659302 30.7922821 C1.22743773 34.93241057 1.10586407 38.36963733 -1 42 C-2.485 42.495 -2.485 42.495 -4 43 C-4 42.34 -4 41.68 -4 41 C-4.66 41 -5.32 41 -6 41 C-5.67 39.68 -5.34 38.36 -5 37 C-3.02 36.505 -3.02 36.505 -1 36 C-1 35.34 -1 34.68 -1 34 C-2.32 33.67 -3.64 33.34 -5 33 C-3.515 32.505 -3.515 32.505 -2 32 C-0.87816292 28.63448877 -0.79199032 25.90939768 -0.68359375 22.36328125 C-0.64169922 21.06455078 -0.59980469 19.76582031 -0.55664062 18.42773438 C-0.51683013 17.05599239 -0.47711784 15.68424756 -0.4375 14.3125 C-0.39429165 12.92902355 -0.35067661 11.54555973 -0.30664062 10.16210938 C-0.20041972 6.77484281 -0.09837642 3.38750201 0 0 Z " fill="#6F9DCC" transform="translate(324,233)"/>
<path d="M0 0 C0.99 0.33 1.98 0.66 3 1 C3.6875 3.0625 3.6875 3.0625 4 5 C4.66 5 5.32 5 6 5 C6.62289264 16.66193434 6.62289264 16.66193434 4.3125 21.625 C2.02057868 23.97886514 -0.06813115 25.53406557 -3 27 C-3 25.68 -3 24.36 -3 23 C-2.36835938 22.78988281 -1.73671875 22.57976562 -1.0859375 22.36328125 C1.25605895 21.13858161 1.25605895 21.13858161 1.8984375 18.35546875 C2.05570313 17.31003906 2.21296875 16.26460938 2.375 15.1875 C2.54773438 14.14980469 2.72046875 13.11210937 2.8984375 12.04296875 C3.00807642 8.75801802 2.40131102 6.9346296 1 4 C0.64141484 2.67323492 0.2981424 1.34164079 0 0 Z " fill="#295F92" transform="translate(215,247)"/>
<path d="M0 0 C9.9 0 19.8 0 30 0 C30 4.29 30 8.58 30 13 C29.34 12.34 28.68 11.68 28 11 C28.0234375 8.8359375 28.0234375 8.8359375 28.375 6.375 C28.54128906 5.14910156 28.54128906 5.14910156 28.7109375 3.8984375 C28.85402344 2.95871094 28.85402344 2.95871094 29 2 C28.01 2.33 27.02 2.66 26 3 C24.2020178 3.13733972 22.39998708 3.2246307 20.59765625 3.28125 C19.54255859 3.31863281 18.48746094 3.35601562 17.40039062 3.39453125 C16.29888672 3.42933594 15.19738281 3.46414062 14.0625 3.5 C11.88659087 3.56899536 9.71079716 3.64175966 7.53515625 3.71875 C6.569729 3.74904297 5.60430176 3.77933594 4.60961914 3.81054688 C2.27666822 3.97991444 0.23904153 4.34695999 -2 5 C-1.34 3.35 -0.68 1.7 0 0 Z " fill="#356696" transform="translate(349,218)"/>
<path d="M0 0 C2 2 2 2 4 5 C3.01 5.33 2.02 5.66 1 6 C1 5.34 1 4.68 1 4 C-2.3 4 -5.6 4 -9 4 C-8.65555119 6.47266765 -8.65555119 6.47266765 -8 9 C-7.34 9.33 -6.68 9.66 -6 10 C-5.375 12.0625 -5.375 12.0625 -5 14 C-4.34 14 -3.68 14 -3 14 C-3.33 14.99 -3.66 15.98 -4 17 C-8.07611772 13.36454366 -10.21436246 10.16895076 -12 5 C-12 3.68 -12 2.36 -12 1 C-10.04310341 0.77857745 -8.08438048 0.5732432 -6.125 0.375 C-4.48917969 0.20097656 -4.48917969 0.20097656 -2.8203125 0.0234375 C-1.88960937 0.01570313 -0.95890625 0.00796875 0 0 Z " fill="#3A6C93" transform="translate(188,257)"/>
<path d="M0 0 C5.44533513 0.38895251 8.12686961 2.2148953 12 6 C14.54047914 9.46428974 14.16114341 12.81027137 14 17 C10.49852959 18.1671568 7.67329964 18.13357453 4 18 C3.34 17.67 2.68 17.34 2 17 C2.33 16.01 2.66 15.02 3 14 C5.97 14.33 8.94 14.66 12 15 C11.67 13.02 11.34 11.04 11 9 C10.34 9 9.68 9 9 9 C7.375 7.6875 7.375 7.6875 6 6 C6 5.01 6 4.02 6 3 C5.01 3 4.02 3 3 3 C3 2.34 3 1.68 3 1 C2.01 0.67 1.02 0.34 0 0 Z " fill="#476E92" transform="translate(205,219)"/>
<path d="M0 0 C0.33 0.99 0.66 1.98 1 3 C-2 5 -2 5 -4 5 C-4.33 6.65 -4.66 8.3 -5 10 C-3.02 10 -1.04 10 1 10 C1 17.92 1 25.84 1 34 C0.67 34 0.34 34 0 34 C0 26.74 0 19.48 0 12 C-2.31 12 -4.62 12 -7 12 C-7 8.37 -7 4.74 -7 1 C-4.69 1.33 -2.38 1.66 0 2 C0 1.34 0 0.68 0 0 Z " fill="#094881" transform="translate(272,231)"/>
<path d="M0 0 C0.66 0 1.32 0 2 0 C2 7.59 2 15.18 2 23 C-1.96 23 -5.92 23 -10 23 C-9.67 17.72 -9.34 12.44 -9 7 C-8.67 7 -8.34 7 -8 7 C-8 11.95 -8 16.9 -8 22 C-5.36 22 -2.72 22 0 22 C-0.03552979 21.36908447 -0.07105957 20.73816895 -0.10766602 20.08813477 C-0.26467409 17.24652446 -0.4136919 14.404551 -0.5625 11.5625 C-0.61857422 10.56927734 -0.67464844 9.57605469 -0.73242188 8.55273438 C-0.78076172 7.60849609 -0.82910156 6.66425781 -0.87890625 5.69140625 C-0.9260376 4.81685791 -0.97316895 3.94230957 -1.02172852 3.04125977 C-1 1 -1 1 0 0 Z " fill="#0F447E" transform="translate(354,253)"/>
<path d="M0 0 C0.66 0.309375 1.32 0.61875 2 0.9375 C5.70476015 2.24960255 9.09263991 2.60264135 13 3 C12.34 4.65 11.68 6.3 11 8 C9.41773035 8.19627391 7.83410729 8.38165538 6.25 8.5625 C5.36828125 8.66691406 4.4865625 8.77132813 3.578125 8.87890625 C1.11567549 8.99456676 -0.66538064 8.73638695 -3 8 C-3 7.01 -3 6.02 -3 5 C0.465 4.505 0.465 4.505 4 4 C2.68 3.34 1.36 2.68 0 2 C0 1.34 0 0.68 0 0 Z " fill="#065393" transform="translate(235,266)"/>
<path d="M0 0 C2 2 2 2 2 6 C1.34 6 0.68 6 0 6 C0.13894148 9.10451549 0.287343 12.20850835 0.4375 15.3125 C0.47681641 16.19357422 0.51613281 17.07464844 0.55664062 17.98242188 C0.59853516 18.82998047 0.64042969 19.67753906 0.68359375 20.55078125 C0.73858032 21.72120972 0.73858032 21.72120972 0.79467773 22.9152832 C0.94125263 25.19329101 0.94125263 25.19329101 2 28 C1.01 28 0.02 28 -1 28 C-3.71316755 17.75294754 -3.51998773 10.03615549 0 0 Z " fill="#386695" transform="translate(68,212)"/>
<path d="M0 0 C1.51400391 0.01740234 1.51400391 0.01740234 3.05859375 0.03515625 C4.07050781 0.04417969 5.08242188 0.05320313 6.125 0.0625 C7.29869141 0.07990234 7.29869141 0.07990234 8.49609375 0.09765625 C8.82609375 1.08765625 9.15609375 2.07765625 9.49609375 3.09765625 C10.30046875 2.60265625 11.10484375 2.10765625 11.93359375 1.59765625 C16.31611829 -0.24761724 19.81924606 -0.18295461 24.49609375 0.09765625 C24.49609375 0.42765625 24.49609375 0.75765625 24.49609375 1.09765625 C22.18609375 1.09765625 19.87609375 1.09765625 17.49609375 1.09765625 C17.49609375 1.75765625 17.49609375 2.41765625 17.49609375 3.09765625 C11.87109375 6.09765625 11.87109375 6.09765625 8.49609375 6.09765625 C8.49609375 5.10765625 8.49609375 4.11765625 8.49609375 3.09765625 C5.52609375 3.09765625 2.55609375 3.09765625 -0.50390625 3.09765625 C-0.83390625 4.74765625 -1.16390625 6.39765625 -1.50390625 8.09765625 C-1.83390625 8.09765625 -2.16390625 8.09765625 -2.50390625 8.09765625 C-2.88453846 5.77157055 -3.2166057 3.43710361 -3.50390625 1.09765625 C-2.50390625 0.09765625 -2.50390625 0.09765625 0 0 Z " fill="#3C5D82" transform="translate(405.50390625,231.90234375)"/>
<path d="M0 0 C0.33 0 0.66 0 1 0 C1.33 4.62 1.66 9.24 2 14 C5.63 14 9.26 14 13 14 C12.979375 12.783125 12.95875 11.56625 12.9375 10.3125 C12.93175884 7.08022678 13.21233685 4.15065259 14 1 C14.66 1.33 15.32 1.66 16 2 C15.88617347 3.95901454 15.75858875 5.9172338 15.625 7.875 C15.55539063 8.96554687 15.48578125 10.05609375 15.4140625 11.1796875 C15 14 15 14 13 16 C10.25 16.265625 10.25 16.265625 7 16.25 C5.39125 16.25773437 5.39125 16.25773437 3.75 16.265625 C1 16 1 16 -1 14 C-0.9765625 10.7421875 -0.9765625 10.7421875 -0.625 6.875 C-0.51414062 5.59367187 -0.40328125 4.31234375 -0.2890625 2.9921875 C-0.19367188 2.00476563 -0.09828125 1.01734375 0 0 Z " fill="#E8BC74" transform="translate(114,257)"/>
<path d="M0 0 C0.99 0.33 1.98 0.66 3 1 C3.02689216 2.47906892 3.04634621 3.95827483 3.0625 5.4375 C3.07410156 6.26121094 3.08570313 7.08492187 3.09765625 7.93359375 C3 10 3 10 2 11 C-1.33618231 11.14257189 -4.65975606 11.04228157 -8 11 C-8 17.27 -8 23.54 -8 30 C-8.33 30 -8.66 30 -9 30 C-9.02888146 26.68751813 -9.04675799 23.37506833 -9.0625 20.0625 C-9.07087891 19.11697266 -9.07925781 18.17144531 -9.08789062 17.19726562 C-9.09111328 16.29814453 -9.09433594 15.39902344 -9.09765625 14.47265625 C-9.10289307 13.64000244 -9.10812988 12.80734863 -9.11352539 11.94946289 C-9 10 -9 10 -8 9 C-5.32941149 8.85884839 -2.67567762 8.95752893 0 9 C0.66 6.69 1.32 4.38 2 2 C0.35 2 -1.3 2 -3 2 C-2.01 1.34 -1.02 0.68 0 0 Z " fill="#1F547D" transform="translate(290,232)"/>
<path d="M0 0 C0.33 0 0.66 0 1 0 C1.33 8.58 1.66 17.16 2 26 C-1.96 26 -5.92 26 -10 26 C-10 23.69 -10 21.38 -10 19 C-9.34 19 -8.68 19 -8 19 C-8 20.65 -8 22.3 -8 24 C-5.36 24.33 -2.72 24.66 0 25 C0 16.75 0 8.5 0 0 Z " fill="#104273" transform="translate(413,250)"/>
<path d="M0 0 C0.99 0.33 1.98 0.66 3 1 C3 4.63 3 8.26 3 12 C-2.94 12 -8.88 12 -15 12 C-15 11.67 -15 11.34 -15 11 C-7.08 10.505 -7.08 10.505 1 10 C0.67 8.02 0.34 6.04 0 4 C-2.97 4 -5.94 4 -9 4 C-9 3.67 -9 3.34 -9 3 C-5.7 3 -2.4 3 1 3 C0.67 2.01 0.34 1.02 0 0 Z " fill="#507EAE" transform="translate(375,242)"/>
<path d="M0 0 C1.485 0.99 1.485 0.99 3 2 C3 2.66 3 3.32 3 4 C18.18 4 33.36 4 49 4 C49 4.33 49 4.66 49 5 C42.34310718 5.02529589 35.6862267 5.04284396 29.02929688 5.05493164 C26.76334164 5.05996926 24.49738967 5.06679952 22.23144531 5.07543945 C18.97980953 5.08752996 15.72821661 5.09323392 12.4765625 5.09765625 C10.94994492 5.10539818 10.94994492 5.10539818 9.39248657 5.11329651 C7.98125015 5.11340981 7.98125015 5.11340981 6.54150391 5.11352539 C5.29574081 5.11685631 5.29574081 5.11685631 4.02481079 5.12025452 C2 5 2 5 0 4 C0 2.68 0 1.36 0 0 Z " fill="#0A3665" transform="translate(80,282)"/>
<path d="M0 0 C0.33 0 0.66 0 1 0 C1 12.87 1 25.74 1 39 C-2.3 39 -5.6 39 -9 39 C-8.67 37.68 -8.34 36.36 -8 35 C-7.34 35.66 -6.68 36.32 -6 37 C-4.02 37.33 -2.04 37.66 0 38 C0 25.46 0 12.92 0 0 Z " fill="#03488A" transform="translate(334,236)"/>
<path d="M0 0 C1.07765625 0.00902344 2.1553125 0.01804688 3.265625 0.02734375 C4.08546875 0.03894531 4.9053125 0.05054688 5.75 0.0625 C5.75 0.3925 5.75 0.7225 5.75 1.0625 C5.12351563 1.11148438 4.49703125 1.16046875 3.8515625 1.2109375 C2.62566406 1.32308594 2.62566406 1.32308594 1.375 1.4375 C0.56289062 1.50710937 -0.24921875 1.57671875 -1.0859375 1.6484375 C-3.45334191 1.89142588 -3.45334191 1.89142588 -5.25 4.0625 C-6.36375 4.165625 -7.4775 4.26875 -8.625 4.375 C-12.40529404 4.72677538 -12.40529404 4.72677538 -14.6875 7.625 C-15.203125 8.429375 -15.71875 9.23375 -16.25 10.0625 C-17.57 9.7325 -18.89 9.4025 -20.25 9.0625 C-13.8769712 2.32529813 -9.18277764 -0.0998128 0 0 Z " fill="#386795" transform="translate(199.25,217.9375)"/>
<path d="M0 0 C1.125 6.75 1.125 6.75 0 9 C-3.63 9 -7.26 9 -11 9 C-11 8.34 -11 7.68 -11 7 C-8.36 7 -5.72 7 -3 7 C-3 5.68 -3 4.36 -3 3 C-4.32 2.34 -5.64 1.68 -7 1 C-4.53721199 -0.231394 -2.7204945 -0.07159196 0 0 Z " fill="#0C4F85" transform="translate(293,267)"/>
<path d="M0 0 C2.75972842 3.21968315 4.6301755 5.98837111 6 10 C6.391875 10.845625 6.78375 11.69125 7.1875 12.5625 C8.41740674 17.7659516 7.63074374 22.73243738 7 28 C6.67 28 6.34 28 6 28 C6 23.38 6 18.76 6 14 C5.34 14 4.68 14 4 14 C3.87625 13.030625 3.7525 12.06125 3.625 11.0625 C3.41875 10.051875 3.2125 9.04125 3 8 C2.34 7.67 1.68 7.34 1 7 C0 6 0 6 -0.0625 2.9375 C-0.041875 1.968125 -0.02125 0.99875 0 0 Z " fill="#4878A1" transform="translate(151,245)"/>
<path d="M0 0 C0.33 0 0.66 0 1 0 C1.02505615 0.96824707 1.0501123 1.93649414 1.07592773 2.93408203 C1.17050706 6.54601985 1.27060183 10.15778785 1.37231445 13.76953125 C1.41547308 15.32906099 1.45716056 16.88863219 1.49731445 18.44824219 C1.55548213 20.69739242 1.61903923 22.94633759 1.68359375 25.1953125 C1.70030624 25.8861795 1.71701874 26.57704651 1.73423767 27.28884888 C1.85461593 31.27363963 2.25154219 35.08458012 3 39 C2.01 39 1.02 39 0 39 C0 26.13 0 13.26 0 0 Z " fill="#074D8C" transform="translate(385,235)"/>
<path d="M0 0 C7.38052027 -0.48396854 7.38052027 -0.48396854 10 1.5625 C11.38351565 4.93481939 11.45903072 7.39333002 11 11 C9.375 12.9375 9.375 12.9375 7 14 C3.75 14.1875 3.75 14.1875 1 14 C4.625 11 4.625 11 8 11 C7.67 7.7 7.34 4.4 7 1 C4.69 1 2.38 1 0 1 C0 0.67 0 0.34 0 0 Z " fill="#4B739B" transform="translate(386,216)"/>
<path d="M0 0 C0.33 0 0.66 0 1 0 C1.33 6.93 1.66 13.86 2 21 C4.9982175 21.74955438 7.96936513 22.41070989 11 23 C11 23.33 11 23.66 11 24 C9.56465159 24.2226746 8.12654475 24.42761906 6.6875 24.625 C5.48673828 24.79902344 5.48673828 24.79902344 4.26171875 24.9765625 C2 25 2 25 -1 23 C-1.2487793 20.66162109 -1.2487793 20.66162109 -1.07421875 17.7734375 C-1.01943359 16.7421875 -0.96464844 15.7109375 -0.90820312 14.6484375 C-0.83537109 13.56820313 -0.76253906 12.48796875 -0.6875 11.375 C-0.62626953 10.28703125 -0.56503906 9.1990625 -0.50195312 8.078125 C-0.34835798 5.38430251 -0.18046592 2.69213428 0 0 Z " fill="#5A81AA" transform="translate(282,243)"/>
<path d="M0 0 C2.44629126 3.66943689 3.05444939 5.6659899 2.875 10.0625 C2.72845138 12.9757388 2.72845138 12.9757388 4.3125 14.8125 C6.10476225 16.19455846 6.10476225 16.19455846 9 17 C8.67 17.99 8.34 18.98 8 20 C4.16113899 18.49187603 2.25840115 16.42524174 0 13 C-0.390625 9.66796875 -0.390625 9.66796875 -0.25 6.1875 C-0.21390625 5.02605469 -0.1778125 3.86460937 -0.140625 2.66796875 C-0.07101563 1.34732422 -0.07101563 1.34732422 0 0 Z " fill="#376496" transform="translate(178,229)"/>
<path d="M0 0 C0.7734375 0.00644531 1.546875 0.01289063 2.34375 0.01953125 C4.5 0.1875 4.5 0.1875 7.5 1.1875 C7.5 1.8475 7.5 2.5075 7.5 3.1875 C8.49 3.1875 9.48 3.1875 10.5 3.1875 C10.17 4.5075 9.84 5.8275 9.5 7.1875 C7.52 7.1875 5.54 7.1875 3.5 7.1875 C3.17 5.5375 2.84 3.8875 2.5 2.1875 C-0.8 2.1875 -4.1 2.1875 -7.5 2.1875 C-4.35388747 0.09009164 -3.58811922 -0.06578219 0 0 Z " fill="#085194" transform="translate(200.5,218.8125)"/>
<path d="M0 0 C6.75 0.875 6.75 0.875 9 2 C10.54023996 2.06950541 12.08334988 2.08452357 13.625 2.0625 C14.44226563 2.05347656 15.25953125 2.04445313 16.1015625 2.03515625 C16.72804688 2.02355469 17.35453125 2.01195312 18 2 C17.67 2.99 17.34 3.98 17 5 C5.47835991 5.55353075 5.47835991 5.55353075 0 2 C0 1.34 0 0.68 0 0 Z " fill="#335C8E" transform="translate(302,272)"/>
<path d="M0 0 C0.33 0 0.66 0 1 0 C1.48828125 1.98567708 1.9765625 3.97135417 2.46484375 5.95703125 C2.91010705 7.65683202 3.44433985 9.33301954 4 11 C1.23735711 11.59732819 -1.16032769 12 -4 12 C-4 11.34 -4 10.68 -4 10 C-3.34 10 -2.68 10 -2 10 C-1.34 8.35 -0.68 6.7 0 5 C-2.64 5 -5.28 5 -8 5 C-8 4.67 -8 4.34 -8 4 C-5.36 3.34 -2.72 2.68 0 2 C0 1.34 0 0.68 0 0 Z " fill="#36709F" transform="translate(248,264)"/>
<path d="M0 0 C1 3 1 3 0.0625 5.1875 C-0.288125 5.785625 -0.63875 6.38375 -1 7 C-1.33 5.68 -1.66 4.36 -2 3 C-4.97 3 -7.94 3 -11 3 C-10.67 2.01 -10.34 1.02 -10 0 C-6.7169902 -1.6415049 -3.57454967 -0.51888624 0 0 Z " fill="#447098" transform="translate(396,232)"/>
<path d="M0 0 C0 0.66 0 1.32 0 2 C0.66 2 1.32 2 2 2 C2.33 3.98 2.66 5.96 3 8 C0.69 7.67 -1.62 7.34 -4 7 C-4.33 5.35 -4.66 3.7 -5 2 C-2 0 -2 0 0 0 Z " fill="#04569E" transform="translate(214,226)"/>
<path d="M0 0 C0.66 0 1.32 0 2 0 C3.80367709 4.59845318 4.1868407 8.22792753 3.9765625 13.1484375 C3.93902359 14.13452499 3.93902359 14.13452499 3.90072632 15.14053345 C3.81922001 17.21926917 3.72237079 19.29695318 3.625 21.375 C3.56668908 22.7929272 3.50938745 24.21089629 3.453125 25.62890625 C3.31374797 29.08649886 3.16061336 32.54332125 3 36 C2.67 36 2.34 36 2 36 C1.83249071 31.62196815 1.67192065 27.24375401 1.51782227 22.86523438 C1.46439997 21.37525558 1.40907038 19.88534391 1.35180664 18.39550781 C1.26990164 16.25600663 1.19482291 14.11635907 1.12109375 11.9765625 C1.0739624 10.68830566 1.02683105 9.40004883 0.97827148 8.07275391 C1 5 1 5 2 3 C1.34 3 0.68 3 0 3 C0 2.01 0 1.02 0 0 Z " fill="#4E7196" transform="translate(438,240)"/>
<path d="M0 0 C0.33 0 0.66 0 1 0 C1 6.6 1 13.2 1 20 C0.01 20.33 -0.98 20.66 -2 21 C-1.86142159 17.87463363 -1.71290431 14.74981783 -1.5625 11.625 C-1.52318359 10.73554688 -1.48386719 9.84609375 -1.44335938 8.9296875 C-1.40146484 8.07890625 -1.35957031 7.228125 -1.31640625 6.3515625 C-1.27974854 5.56604004 -1.24309082 4.78051758 -1.20532227 3.97119141 C-1 2 -1 2 0 0 Z " fill="#E2A75B" transform="translate(99,232)"/>
<path d="M0 0 C0.66 0 1.32 0 2 0 C2.11547323 8.07029553 1.90041311 15.97667603 1 24 C0.67 24 0.34 24 0 24 C-0.94120241 15.83325905 -0.94120241 8.16674095 0 0 Z " fill="#E39C41" transform="translate(110,246)"/>
<path d="M0 0 C0.33 0 0.66 0 1 0 C1.24939926 11.1952557 0.66940943 21.9252571 -1 33 C-1.33 33 -1.66 33 -2 33 C-2.02683987 30.02077407 -2.04676037 27.04178705 -2.0625 24.0625 C-2.07087891 23.21236328 -2.07925781 22.36222656 -2.08789062 21.48632812 C-2.09111328 20.67744141 -2.09433594 19.86855469 -2.09765625 19.03515625 C-2.10289307 18.2862915 -2.10812988 17.53742676 -2.11352539 16.76586914 C-2 15 -2 15 -1 14 C-0.76472227 11.65012738 -0.58613583 9.29443961 -0.4375 6.9375 C-0.35371094 5.64714844 -0.26992187 4.35679687 -0.18359375 3.02734375 C-0.12300781 2.02832031 -0.06242188 1.02929688 0 0 Z " fill="#E1B876" transform="translate(132,226)"/>
<path d="M0 0 C5.28 0.33 10.56 0.66 16 1 C16 1.99 16 2.98 16 4 C4.1310267 4.56122991 4.1310267 4.56122991 0 1 C0 0.67 0 0.34 0 0 Z " fill="#346293" transform="translate(228,273)"/>
<path d="M0 0 C0.33 0 0.66 0 1 0 C1.33 2.97 1.66 5.94 2 9 C2.66 9 3.32 9 4 9 C3.67 10.98 3.34 12.96 3 15 C-0.96 15 -4.92 15 -9 15 C-9 14.34 -9 13.68 -9 13 C-6.03 13.33 -3.06 13.66 0 14 C0 9.38 0 4.76 0 0 Z " fill="#215688" transform="translate(393,261)"/>
<path d="M0 0 C2.97 0 5.94 0 9 0 C9.91476665 2.74429996 10.19238444 4.59033094 10.25 7.4375 C10.27578125 8.19933594 10.3015625 8.96117187 10.328125 9.74609375 C9.92263076 12.531453 8.81940009 13.8981141 7 16 C6.97306425 13.87506859 6.95363372 11.75004088 6.9375 9.625 C6.92589844 8.44164062 6.91429687 7.25828125 6.90234375 6.0390625 C7 3 7 3 8 1 C5.36 1 2.72 1 0 1 C0 0.67 0 0.34 0 0 Z " fill="#356386" transform="translate(301,232)"/>
<path d="M0 0 C0.66 0 1.32 0 2 0 C2.39325819 6.97669157 1.63096039 12.51656189 -1 19 C-1.66 19 -2.32 19 -3 19 C-2.68926976 16.77058595 -2.37634375 14.54147788 -2.0625 12.3125 C-1.88847656 11.07113281 -1.71445313 9.82976562 -1.53515625 8.55078125 C-1.10177103 5.67525452 -0.60350718 2.84355187 0 0 Z " fill="#366B99" transform="translate(68,279)"/>
<path d="M0 0 C3.96 0 7.92 0 12 0 C12 4.62 12 9.24 12 14 C11.34 13.67 10.68 13.34 10 13 C10 9.37 10 5.74 10 2 C8.35 2.33 6.7 2.66 5 3 C2.1875 2.5625 2.1875 2.5625 0 2 C0 1.34 0 0.68 0 0 Z " fill="#144E84" transform="translate(71,270)"/>
<path d="M0 0 C0.99 0.33 1.98 0.66 3 1 C3.6875 3.0625 3.6875 3.0625 4 5 C4.66 5 5.32 5 6 5 C6 8.96 6 12.92 6 17 C5.34 17 4.68 17 4 17 C3.87882813 16.15695312 3.75765625 15.31390625 3.6328125 14.4453125 C3.46523437 13.34960938 3.29765625 12.25390625 3.125 11.125 C2.96257812 10.03445313 2.80015625 8.94390625 2.6328125 7.8203125 C2.23743487 4.88067286 2.23743487 4.88067286 0 3 C0 2.01 0 1.02 0 0 Z " fill="#5E8CAB" transform="translate(215,247)"/>
<path d="M0 0 C0.33 0 0.66 0 1 0 C1 4.62 1 9.24 1 14 C3.97 14.495 3.97 14.495 7 15 C7 15.33 7 15.66 7 16 C4.66705225 16.04241723 2.33297433 16.04092937 0 16 C-1 15 -1 15 -1.1328125 11.875 C-1.13023438 10.59625 -1.12765625 9.3175 -1.125 8 C-1.12757812 6.72125 -1.13015625 5.4425 -1.1328125 4.125 C-1 1 -1 1 0 0 Z " fill="#E4901E" transform="translate(116,256)"/>
<path d="M0 0 C-1.450954 3.82524236 -3.38181932 5.19090966 -7 7 C-7.66 7 -8.32 7 -9 7 C-9.33 5.35 -9.66 3.7 -10 2 C-3.375 0 -3.375 0 0 0 Z " fill="#04569E" transform="translate(241,253)"/>
<path d="M0 0 C0.33 0 0.66 0 1 0 C1.33 6.27 1.66 12.54 2 19 C1.34 19.33 0.68 19.66 0 20 C-1.09848394 16.4517225 -1.13341955 13.13789215 -1.125 9.4375 C-1.12757813 8.30183594 -1.13015625 7.16617188 -1.1328125 5.99609375 C-1 3 -1 3 0 0 Z " fill="#184776" transform="translate(309,245)"/>
<path d="M0 0 C1.32 0 2.64 0 4 0 C4 0.99 4 1.98 4 3 C2.56705502 3.84114171 1.12845595 4.67265687 -0.3125 5.5 C-1.51326172 6.19609375 -1.51326172 6.19609375 -2.73828125 6.90625 C-5 8 -5 8 -8 8 C-8 7.34 -8 6.68 -8 6 C-5.35261084 4.5393715 -4.10551666 4 -1 4 C-0.67 2.68 -0.34 1.36 0 0 Z " fill="#1A5384" transform="translate(143,290)"/>
<path d="M0 0 C5.63860699 0.40275764 8.07346846 2.16478314 12 6 C12.33 6.99 12.66 7.98 13 9 C9 9 9 9 7.25 7.6875 C6 6 6 6 6 3 C5.01 3 4.02 3 3 3 C3 2.34 3 1.68 3 1 C2.01 0.67 1.02 0.34 0 0 Z " fill="#3E6D99" transform="translate(205,219)"/>
<path d="M0 0 C2.64 0 5.28 0 8 0 C7.34 1.65 6.68 3.3 6 5 C4.02 5 2.04 5 0 5 C-0.33 4.34 -0.66 3.68 -1 3 C-0.67 2.01 -0.34 1.02 0 0 Z " fill="#01579E" transform="translate(312,269)"/>
<path d="M0 0 C1.76462683 3.08809695 2 4.23312136 2 8 C0.5 10.25 0.5 10.25 -1 12 C-2.32 11.67 -3.64 11.34 -5 11 C-4.319375 9.948125 -4.319375 9.948125 -3.625 8.875 C-1.98313057 5.97015409 -0.96322901 3.1860652 0 0 Z " fill="#346999" transform="translate(143,268)"/>
<path d="M0 0 C0.66 0 1.32 0 2 0 C2 0.66 2 1.32 2 2 C2.886875 1.814375 3.77375 1.62875 4.6875 1.4375 C7.85178811 1.01957516 9.94839642 1.19222258 13 2 C13 2.99 13 3.98 13 5 C12.31292969 4.91621094 11.62585938 4.83242187 10.91796875 4.74609375 C10.01691406 4.64425781 9.11585938 4.54242188 8.1875 4.4375 C7.29417969 4.33308594 6.40085938 4.22867188 5.48046875 4.12109375 C2.86624428 3.84341291 2.86624428 3.84341291 0 5 C0 3.35 0 1.7 0 0 Z " fill="#255C90" transform="translate(238,239)"/>
<path d="M0 0 C1.32 0 2.64 0 4 0 C4 4.95 4 9.9 4 15 C3.34 15 2.68 15 2 15 C2.02320313 14.33613281 2.04640625 13.67226562 2.0703125 12.98828125 C2.23624305 6.27138984 2.23624305 6.27138984 0 0 Z " fill="#1A5287" transform="translate(155,193)"/>
<path d="M0 0 C1.98 0.66 3.96 1.32 6 2 C6 3.32 6 4.64 6 6 C3.36 6 0.72 6 -2 6 C-1.67 5.01 -1.34 4.02 -1 3 C-0.34 2.67 0.32 2.34 1 2 C0.67 1.34 0.34 0.68 0 0 Z " fill="#03599F" transform="translate(284,268)"/>
<path d="M0 0 C0.66 0 1.32 0 2 0 C2 0.66 2 1.32 2 2 C4.64 2.33 7.28 2.66 10 3 C10.33 3.99 10.66 4.98 11 6 C10.34 6.66 9.68 7.32 9 8 C7.68121422 7.23997083 6.3701316 6.46656347 5.0625 5.6875 C4.33160156 5.25824219 3.60070312 4.82898438 2.84765625 4.38671875 C1 3 1 3 0 0 Z " fill="#4975A3" transform="translate(75,251)"/>
<path d="M0 0 C0.66 0.66 1.32 1.32 2 2 C4.20250992 2.46006346 4.20250992 2.46006346 6.625 2.625 C7.44226563 2.69976562 8.25953125 2.77453125 9.1015625 2.8515625 C9.72804687 2.90054688 10.35453125 2.94953125 11 3 C11 3.66 11 4.32 11 5 C7.04 5 3.08 5 -1 5 C-1.33 4.34 -1.66 3.68 -2 3 C-1.34 2.01 -0.68 1.02 0 0 Z " fill="#49729A" transform="translate(226,243)"/>
<path d="M0 0 C0.33 0 0.66 0 1 0 C1.03738281 0.59167969 1.07476562 1.18335938 1.11328125 1.79296875 C1.51376901 6.60667451 2.0385035 10.00841777 5 14 C2.48087612 13.66411682 1.32803881 13.42645046 -0.25 11.375 C-1.44390976 7.59428575 -1.80285494 3.60570987 0 0 Z " fill="#1B4C80" transform="translate(225,259)"/>
<path d="M0 0 C5.75 3.625 5.75 3.625 8 7 C7.34 7 6.68 7 6 7 C6 8.65 6 10.3 6 12 C5.34 12 4.68 12 4 12 C3.67 9.03 3.34 6.06 3 3 C2.01 2.67 1.02 2.34 0 2 C0 1.34 0 0.68 0 0 Z " fill="#226291" transform="translate(431,232)"/>
<path d="M0 0 C3.63 0 7.26 0 11 0 C11 0.99 11 1.98 11 3 C7.7 3 4.4 3 1 3 C0.67 2.01 0.34 1.02 0 0 Z " fill="#074983" transform="translate(194,267)"/>
<path d="M0 0 C1.50433594 0.01353516 1.50433594 0.01353516 3.0390625 0.02734375 C3.80992187 0.03894531 4.58078125 0.05054688 5.375 0.0625 C5.705 1.7125 6.035 3.3625 6.375 5.0625 C5.859375 4.546875 5.34375 4.03125 4.8125 3.5 C1.37037264 1.47002745 -0.8076595 2.22962571 -4.625 3.0625 C-5.615 3.3925 -6.605 3.7225 -7.625 4.0625 C-7.625 3.0725 -7.625 2.0825 -7.625 1.0625 C-4.98041621 -0.25979189 -2.94738699 -0.03427194 0 0 Z " fill="#356290" transform="translate(422.625,241.9375)"/>
<path d="M0 0 C5.75 -0.125 5.75 -0.125 8 1 C8 1.66 8 2.32 8 3 C8.99 3 9.98 3 11 3 C11 3.66 11 4.32 11 5 C9.02 5.66 7.04 6.32 5 7 C5 4 5 4 6 2 C3.03 1.505 3.03 1.505 0 1 C0 0.67 0 0.34 0 0 Z " fill="#0E4E89" transform="translate(201,243)"/>
<path d="M0 0 C3.37462715 0.54723683 5.08235 1.0549 8 3 C10.27912938 3.45394552 10.27912938 3.45394552 12.6875 3.625 C13.49574219 3.69976562 14.30398438 3.77453125 15.13671875 3.8515625 C15.75160156 3.90054687 16.36648438 3.94953125 17 4 C17 4.33 17 4.66 17 5 C10.93582051 5.3235827 6.2493273 5.49955154 1 2 C0.67 1.34 0.34 0.68 0 0 Z " fill="#597EA0" transform="translate(274,272)"/>
<path d="M0 0 C0.33 0 0.66 0 1 0 C1 2.97 1 5.94 1 9 C0.01 9 -0.98 9 -2 9 C-1.67 8.01 -1.34 7.02 -1 6 C-2.32 5.67 -3.64 5.34 -5 5 C-4.01 4.67 -3.02 4.34 -2 4 C-0.79117904 1.99983534 -0.79117904 1.99983534 0 0 Z " fill="#246296" transform="translate(324,261)"/>
<path d="M0 0 C1.65 0 3.3 0 5 0 C5.33 0.66 5.66 1.32 6 2 C4.68 2.33 3.36 2.66 2 3 C1.67 5.31 1.34 7.62 1 10 C2.65 10 4.3 10 6 10 C6 10.33 6 10.66 6 11 C4.02 11 2.04 11 0 11 C0 7.37 0 3.74 0 0 Z " fill="#3E6388" transform="translate(265,232)"/>
<path d="M0 0 C-0.639375 0.20625 -1.27875 0.4125 -1.9375 0.625 C-4.34925077 1.89538209 -4.34925077 1.89538209 -4.75 5.125 C-4.8325 6.07375 -4.915 7.0225 -5 8 C-5.99 8 -6.98 8 -8 8 C-9.03348696 4.89953913 -9.17755913 3.94389782 -8 1 C-5.07175348 0.02391783 -3.04386724 -0.08226668 0 0 Z " fill="#3973A3" transform="translate(196,229)"/>
<path d="M0 0 C1.32 0 2.64 0 4 0 C4 3.3 4 6.6 4 10 C3.01 10 2.02 10 1 10 C1.020625 8.906875 1.04125 7.81375 1.0625 6.6875 C1.18544452 3.05615809 1.18544452 3.05615809 0 0 Z " fill="#547FA1" transform="translate(90,245)"/>
<path d="M0 0 C1.98 0.495 1.98 0.495 4 1 C4.33 2.98 4.66 4.96 5 7 C4.01 7 3.02 7 2 7 C1.67 6.01 1.34 5.02 1 4 C0.34 3.67 -0.32 3.34 -1 3 C-0.67 2.01 -0.34 1.02 0 0 Z " fill="#0258A2" transform="translate(388,219)"/>
<path d="M0 0 C0.33 0 0.66 0 1 0 C1.125 6.625 1.125 6.625 0 10 C-2.31 9.67 -4.62 9.34 -7 9 C-6.401875 8.814375 -5.80375 8.62875 -5.1875 8.4375 C-1.90018201 6.27726247 -1.35145313 3.64892345 0 0 Z " fill="#45749B" transform="translate(208,258)"/>
<path d="M0 0 C5.53846154 0.61538462 5.53846154 0.61538462 7.875 2.5625 C8.431875 3.2740625 8.431875 3.2740625 9 4 C5.37673261 5.2077558 4.35853631 4.54311128 1 3 C0.67 3.66 0.34 4.32 0 5 C0 3.35 0 1.7 0 0 Z " fill="#5882A3" transform="translate(136,235)"/>
<path d="M0 0 C2.8326134 1.4163067 3.01707833 3.14497293 4.125 6.0625 C4.47820312 6.98160156 4.83140625 7.90070313 5.1953125 8.84765625 C5.46085937 9.55792969 5.72640625 10.26820313 6 11 C5.34 11 4.68 11 4 11 C4 10.34 4 9.68 4 9 C3.01 8.67 2.02 8.34 1 8 C-0.35439668 5.29120665 -0.06501451 2.99066732 0 0 Z " fill="#51779D" transform="translate(79,229)"/>
<path d="M0 0 C1.21236328 0.01353516 1.21236328 0.01353516 2.44921875 0.02734375 C3.37154297 0.04474609 3.37154297 0.04474609 4.3125 0.0625 C4.3125 0.3925 4.3125 0.7225 4.3125 1.0625 C1.0125 1.3925 -2.2875 1.7225 -5.6875 2.0625 C-5.6875 2.7225 -5.6875 3.3825 -5.6875 4.0625 C-7.3375 4.0625 -8.9875 4.0625 -10.6875 4.0625 C-7.4284026 0.49301238 -4.73606476 -0.06863862 0 0 Z " fill="#6A8CA8" transform="translate(238.6875,249.9375)"/>
<path d="M0 0 C1.98 0.66 3.96 1.32 6 2 C5.01 2.495 5.01 2.495 4 3 C4.66 3.33 5.32 3.66 6 4 C6 4.66 6 5.32 6 6 C4.35 6.33 2.7 6.66 1 7 C0.67 4.69 0.34 2.38 0 0 Z " fill="#2F6A9F" transform="translate(191,238)"/>
<path d="M0 0 C0.99 0.33 1.98 0.66 3 1 C1.63016497 4.16115776 1.0109362 4.9927092 -2 7 C-2.33 6.01 -2.66 5.02 -3 4 C-1.5625 1.8125 -1.5625 1.8125 0 0 Z " fill="#1E568A" transform="translate(229,237)"/>
<path d="M0 0 C0.99 0.99 1.98 1.98 3 3 C2.34 3.66 1.68 4.32 1 5 C-1 5 -3 5 -5 5 C-5 4.34 -5 3.68 -5 3 C-4.34 3 -3.68 3 -3 3 C-3 2.34 -3 1.68 -3 1 C-2.01 0.67 -1.02 0.34 0 0 Z " fill="#4477A3" transform="translate(249,271)"/>
<path d="M0 0 C-0.33 0.66 -0.66 1.32 -1 2 C-0.01 2.33 0.98 2.66 2 3 C-1.05263664 3.98120464 -2.94736336 3.98120464 -6 3 C-6 2.01 -6 1.02 -6 0 C-3 -1 -3 -1 0 0 Z " fill="#04589D" transform="translate(238,271)"/>
<path d="M0 0 C1.5625 1.0625 1.5625 1.0625 3 3 C2.6875 6.6875 2.6875 6.6875 2 10 C0.4375 8.9375 0.4375 8.9375 -1 7 C-0.6875 3.3125 -0.6875 3.3125 0 0 Z " fill="#2E608E" transform="translate(300,262)"/>
<path d="M0 0 C2 2 2 2 2.13525391 3.87939453 C2.08288574 4.62302246 2.03051758 5.36665039 1.9765625 6.1328125 C1.89921875 7.34130859 1.89921875 7.34130859 1.8203125 8.57421875 C1.75585938 9.41597656 1.69140625 10.25773437 1.625 11.125 C1.56828125 11.97449219 1.5115625 12.82398438 1.453125 13.69921875 C1.31149023 15.8001345 1.15695674 17.90017334 1 20 C0.67 20 0.34 20 0 20 C-0.19594676 16.85463232 -0.3803401 13.70869386 -0.5625 10.5625 C-0.61857422 9.66466797 -0.67464844 8.76683594 -0.73242188 7.84179688 C-0.78076172 6.98779297 -0.82910156 6.13378906 -0.87890625 5.25390625 C-0.9260376 4.46314697 -0.97316895 3.6723877 -1.02172852 2.85766602 C-1 1 -1 1 0 0 Z " fill="#4C6E92" transform="translate(414,248)"/>
<path d="M0 0 C0.99 0.99 1.98 1.98 3 3 C2.34 3 1.68 3 1 3 C1 3.99 1 4.98 1 6 C-0.32 6.33 -1.64 6.66 -3 7 C-2.67 5.35 -2.34 3.7 -2 2 C-1.34 2 -0.68 2 0 2 C0 1.34 0 0.68 0 0 Z " fill="#0258A2" transform="translate(185,233)"/>
<path d="M0 0 C0.33 1.32 0.66 2.64 1 4 C2.65 3.67 4.3 3.34 6 3 C6.66 4.65 7.32 6.3 8 8 C1.125 6.125 1.125 6.125 0 5 C-0.04063832 3.33382885 -0.042721 1.66611905 0 0 Z " fill="#0B4C8C" transform="translate(273,266)"/>
<path d="M0 0 C0.91007812 0.00902344 1.82015625 0.01804688 2.7578125 0.02734375 C3.45648438 0.03894531 4.15515625 0.05054688 4.875 0.0625 C4.875 0.3925 4.875 0.7225 4.875 1.0625 C2.565 1.0625 0.255 1.0625 -2.125 1.0625 C-2.125 1.7225 -2.125 2.3825 -2.125 3.0625 C-3.775 3.3925 -5.425 3.7225 -7.125 4.0625 C-7.125 3.0725 -7.125 2.0825 -7.125 1.0625 C-4.60024538 -0.19987731 -2.81299534 -0.03606404 0 0 Z " fill="#397191" transform="translate(425.125,231.9375)"/>
<path d="M0 0 C3.3 0 6.6 0 10 0 C9.67 0.99 9.34 1.98 9 3 C7.72125 2.95875 6.4425 2.9175 5.125 2.875 C2.98128508 2.75787127 2.98128508 2.75787127 1 3 C0.34 3.66 -0.32 4.32 -1 5 C-0.67 3.35 -0.34 1.7 0 0 Z " fill="#416383" transform="translate(326,232)"/>
<path d="M0 0 C0 0.66 0 1.32 0 2 C-2.97 2 -5.94 2 -9 2 C-9.33 1.34 -9.66 0.68 -10 0 C-6.30458414 -0.95024979 -3.69541586 -0.95024979 0 0 Z " fill="#094C89" transform="translate(323,267)"/>
<path d="M0 0 C2.97 0.495 2.97 0.495 6 1 C6.33 1.99 6.66 2.98 7 4 C5.35 4 3.7 4 2 4 C2 3.34 2 2.68 2 2 C1.34 2 0.68 2 0 2 C0 1.34 0 0.68 0 0 Z " fill="#04569C" transform="translate(242,252)"/>
<path d="M0 0 C2 3.875 2 3.875 2 5 C-0.97 5 -3.94 5 -7 5 C-4.64046906 2.64046906 -3.22104383 2.50858587 0 2 C0 1.34 0 0.68 0 0 Z " fill="#0B5994" transform="translate(237,241)"/>
<path d="M0 0 C0.66 0.33 1.32 0.66 2 1 C1.34 3.64 0.68 6.28 0 9 C-0.66 9 -1.32 9 -2 9 C-1.125 1.125 -1.125 1.125 0 0 Z " fill="#336795" transform="translate(81,215)"/>
<path d="M0 0 C0.33 0.66 0.66 1.32 1 2 C0.01 2.33 -0.98 2.66 -2 3 C-3.37195574 4.29355827 -4.71182656 5.62298702 -6 7 C-6 5.02 -6 3.04 -6 1 C-4.02 0.67 -2.04 0.34 0 0 Z " fill="#4F7FA1" transform="translate(89,209)"/>
<path d="M0 0 C6.75 0.75 6.75 0.75 9 3 C6.08517222 3.80967438 4.53886783 4.21845993 1.6875 3.0625 C1.130625 2.711875 0.57375 2.36125 0 2 C0 1.34 0 0.68 0 0 Z " fill="#3F6DA1" transform="translate(302,272)"/>
<path d="M0 0 C1.65 0 3.3 0 5 0 C5 0.66 5 1.32 5 2 C5.99 1.67 6.98 1.34 8 1 C7.67 2.32 7.34 3.64 7 5 C6.01 5 5.02 5 4 5 C4 3.68 4 2.36 4 1 C2.68 0.67 1.36 0.34 0 0 Z " fill="#1D4B80" transform="translate(410,233)"/>
<path d="M0 0 C0.99 0.33 1.98 0.66 3 1 C2.34 1 1.68 1 1 1 C1 1.66 1 2.32 1 3 C2.32 3.33 3.64 3.66 5 4 C4 5 4 5 0.4375 5.0625 C-0.696875 5.041875 -1.83125 5.02125 -3 5 C-2.34 4.67 -1.68 4.34 -1 4 C-0.34786708 1.97536745 -0.34786708 1.97536745 0 0 Z " fill="#054A85" transform="translate(195,224)"/>
<path d="M0 0 C3.96 0 7.92 0 12 0 C12 0.33 12 0.66 12 1 C8.04 1.66 4.08 2.32 0 3 C0 2.01 0 1.02 0 0 Z " fill="#084E8D" transform="translate(91,193)"/>
<path d="M0 0 C1.2065625 0.0309375 1.2065625 0.0309375 2.4375 0.0625 C2.1075 1.0525 1.7775 2.0425 1.4375 3.0625 C0.4475 3.0625 -0.5425 3.0625 -1.5625 3.0625 C-1.8925 3.7225 -2.2225 4.3825 -2.5625 5.0625 C-3.125 3.125 -3.125 3.125 -3.5625 1.0625 C-2.5625 0.0625 -2.5625 0.0625 0 0 Z " fill="#16538C" transform="translate(229.5625,253.9375)"/>
<path d="M0 0 C0.33 0.66 0.66 1.32 1 2 C1.99 2 2.98 2 4 2 C3.67 4.31 3.34 6.62 3 9 C2.34 9 1.68 9 1 9 C0.67 6.03 0.34 3.06 0 0 Z " fill="#0E518E" transform="translate(68,234)"/>
<path d="M0 0 C0 0.33 0 0.66 0 1 C-3.3 1.66 -6.6 2.32 -10 3 C-9.67 2.01 -9.34 1.02 -9 0 C-5.52176885 -1.15941038 -3.54104422 -0.70820884 0 0 Z " fill="#456B91" transform="translate(100,206)"/>
<path d="M0 0 C2.31 0 4.62 0 7 0 C7.33 0.99 7.66 1.98 8 3 C5.6568787 2.74438677 3.32156597 2.40729228 1 2 C0.67 1.34 0.34 0.68 0 0 Z " fill="#3D6F9C" transform="translate(194,251)"/>
<path d="M0 0 C0.66 0 1.32 0 2 0 C2 1.98 2 3.96 2 6 C-0.31 5.67 -2.62 5.34 -5 5 C-5 4.67 -5 4.34 -5 4 C-3.35 4 -1.7 4 0 4 C0 2.68 0 1.36 0 0 Z " fill="#5283AF" transform="translate(250,246)"/>
<path d="M0 0 C0.66 0 1.32 0 2 0 C4.21538462 5.41538462 4.21538462 5.41538462 3.125 8.375 C2.75375 8.91125 2.3825 9.4475 2 10 C0.875 5.25 0.875 5.25 2 3 C1.34 3 0.68 3 0 3 C0 2.01 0 1.02 0 0 Z " fill="#44769D" transform="translate(438,240)"/>
</svg>
